<?xml version="1.0" encoding="UTF-8"?>
<svg width="996px" height="1098px" viewBox="0 0 996 1098" version="1.1" xmlns="http://www.w3.org/2000/svg" xmlns:xlink="http://www.w3.org/1999/xlink">
    <title>Group 5</title>
    <defs>
        <rect id="path-1" x="0" y="0" width="996" height="1098"/>
    </defs>
    <g id="Page-1" stroke="none" stroke-width="1" fill="none" fill-rule="evenodd" opacity="0.302083333">
        <g id="Artboard" transform="translate(-444.000000, -37.000000)">
            <g id="shutterstock_1006978153-(1)" transform="translate(942.000000, 586.000000) scale(-1, 1) translate(-942.000000, -586.000000) translate(444.000000, 37.000000)">
                <g id="Group-5" transform="translate(0.000000, 0.000000)">
                    <mask id="mask-2" fill="white">
                        <use xlink:href="#path-1"/>
                    </mask>
                    <g id="Mask"/>
                    <g mask="url(#mask-2)">
                        <g transform="translate(-761.000000, -354.000000)">
                            <path d="M65.111,633.694 C65.381,634.181 65.76,634.618 66.266,634.937 C67.881,635.964 70.024,635.483 71.05,633.868 C71.632,632.951 71.716,631.875 71.399,630.919 L96.563,619.823 C96.797,620.234 97.098,620.605 97.523,620.876 C98.924,621.767 100.785,621.351 101.675,619.947 C102.172,619.167 102.226,618.258 101.967,617.441 L139.15,601.044 C139.369,601.5 139.639,601.929 139.951,602.336 L82.673,649.783 C82.52,649.628 82.394,649.455 82.205,649.333 C80.798,648.44 78.943,648.857 78.054,650.261 C77.731,650.771 77.634,651.337 77.636,651.896 L10.608,658.835 C10.554,658.496 10.469,658.164 10.346,657.842 L65.111,633.694 Z M164.844,613.047 L83.167,650.388 C83.126,650.322 83.117,650.244 83.075,650.183 L140.317,602.766 C140.771,603.274 141.273,603.751 141.877,604.134 C145.101,606.183 149.26,605.459 151.667,602.633 L164.844,613.047 Z M254.853,572.523 C255.122,573.007 255.5,573.443 256.005,573.765 C256.126,573.841 256.254,573.892 256.38,573.953 L225.737,654.717 C223.831,654.113 221.726,654.672 220.38,656.189 L165.916,613.17 L254.853,572.523 Z M469.448,689.361 L357.924,675.691 C358.01,674.238 357.346,672.783 356.031,671.947 C354.103,670.723 351.547,671.295 350.321,673.223 C350.029,673.684 349.843,674.182 349.75,674.691 L315.633,670.508 C315.683,669.463 315.229,668.42 314.287,667.82 C312.883,666.928 311.025,667.346 310.133,668.75 C309.927,669.074 309.807,669.428 309.736,669.783 L229.28,659.924 C229.397,658.115 228.574,656.296 226.938,655.257 C226.721,655.119 226.493,655.02 226.263,654.917 L256.906,574.152 C258.324,574.562 259.893,574.037 260.748,572.748 L469.893,688.055 C469.689,688.479 469.527,688.914 469.448,689.361 Z M491.526,766.908 L469.719,801.193 C469.129,800.865 468.489,800.656 467.825,800.576 L474.449,695.373 C474.747,695.377 475.044,695.348 475.336,695.299 L491.526,766.908 Z M513.726,733.061 C514.625,733.486 515.699,733.514 516.605,732.943 C518.013,732.061 518.437,730.205 517.554,728.797 C517.374,728.51 517.131,728.293 516.884,728.09 L535.343,699.072 C536.608,699.746 538.18,699.76 539.482,698.941 C541.417,697.727 542.001,695.176 540.785,693.24 C540.67,693.055 540.53,692.891 540.391,692.732 L633.24,600.085 L740.222,624.261 C740.092,625.023 740.138,625.811 740.367,626.573 L653.262,657.994 C652.777,656.857 651.897,655.882 650.686,655.329 C648.106,654.156 645.07,655.296 643.899,657.871 C642.722,660.445 643.864,663.482 646.441,664.65 C647.962,665.346 649.64,665.217 651.004,664.473 L682.506,715.365 C682.061,715.703 681.684,716.137 681.437,716.682 C680.641,718.424 681.417,720.48 683.159,721.27 C684.144,721.719 685.224,721.652 686.123,721.209 L700.597,744.592 C700.228,744.881 699.9,745.232 699.691,745.689 C699.001,747.199 699.671,748.988 701.187,749.676 C701.33,749.742 701.479,749.736 701.628,749.779 L693.039,797.072 L511.705,831.717 C511.399,830.486 510.647,829.361 509.492,828.627 C508.376,827.92 507.099,827.715 505.896,827.916 L492.126,767.014 L513.726,733.061 Z M600.069,597.314 C601.65,598.2 603.646,598.238 605.288,597.207 C606.405,596.505 607.139,595.439 607.473,594.265 L632.587,599.939 L539.989,692.336 C539.914,692.268 539.837,692.197 539.757,692.135 L600.069,597.314 Z M669.342,557.189 C668.967,557.318 668.6,557.473 668.25,557.695 C665.856,559.196 665.131,562.359 666.636,564.757 C666.792,565.005 666.976,565.225 667.164,565.437 L633.06,599.467 L607.598,593.715 C607.798,592.519 607.597,591.252 606.901,590.145 C606.18,588.994 605.073,588.242 603.854,587.921 L634.597,436.31 C635.048,436.371 635.505,436.363 635.96,436.271 L669.342,557.189 Z M882.009,456.601 C882.063,456.697 882.095,456.802 882.155,456.897 C882.475,457.406 882.869,457.829 883.293,458.213 L825.387,528.039 C824.065,527.093 822.251,526.978 820.788,527.898 C818.852,529.112 818.268,531.664 819.484,533.6 C819.669,533.895 819.891,534.147 820.131,534.376 L748.295,621.001 C746.649,619.783 744.368,619.615 742.53,620.769 C742.157,621.003 741.839,621.289 741.55,621.595 L675.047,565.123 C676.145,563.671 676.404,561.718 675.658,560.003 L882.009,456.601 Z M673.697,566.375 C674.071,566.14 674.389,565.855 674.678,565.548 L741.183,622.023 C740.795,622.534 740.517,623.105 740.343,623.711 L633.711,599.617 L667.568,565.83 C669.227,567.318 671.719,567.616 673.697,566.375 Z M725.094,784.168 C723.968,784.924 723.017,785.975 722.414,787.297 C721.78,788.688 721.615,790.168 721.834,791.572 L693.632,796.959 L702.178,749.902 C702.713,749.949 703.229,749.844 703.709,749.617 L725.094,784.168 Z M681.232,871.957 C681.16,871.92 681.099,871.869 681.023,871.836 C680.717,871.695 680.406,871.596 680.091,871.52 L693.523,797.553 L721.958,792.119 C722.393,794.008 723.543,795.695 725.255,796.783 L681.232,871.957 Z M719.45,893.029 C719.491,893.057 719.537,893.07 719.578,893.094 L681.548,962.84 C681.251,962.725 680.949,962.646 680.647,962.629 L679.271,881.584 C681.078,881.451 682.765,880.385 683.568,878.621 C683.657,878.426 683.707,878.229 683.768,878.029 L716.635,886.344 C716.112,888.869 717.145,891.563 719.45,893.029 Z M904.885,864.855 C904.928,865.105 904.99,865.352 905.081,865.598 C905.208,865.932 905.383,866.232 905.581,866.514 L834.849,923.309 C833.147,921.373 830.375,920.57 827.819,921.529 C826.107,922.17 824.847,923.471 824.187,925.029 L728.94,889.588 C729.202,888.775 729.292,887.939 729.224,887.115 L904.885,864.855 Z M948.103,584.026 C949.006,584.103 949.863,583.919 950.632,583.57 L1046.893,768.434 C1045.521,769.25 1044.542,770.68 1044.396,772.391 C1044.343,773.008 1044.418,773.602 1044.572,774.166 L1008.658,786.055 C1007.636,783.457 1004.723,782.145 1002.099,783.127 C999.449,784.121 998.105,787.078 999.098,789.725 C999.259,790.156 999.49,790.539 999.748,790.898 L911.998,861.359 C911.399,860.701 910.603,860.266 909.738,860.098 L948.103,584.026 Z M999.034,619.765 C998.727,620.23 998.516,620.766 998.465,621.361 C998.299,623.271 999.715,624.947 1001.622,625.113 C1002.703,625.205 1003.696,624.782 1004.396,624.061 L1025.854,641.261 C1025.599,641.657 1025.407,642.095 1025.363,642.597 C1025.223,644.252 1026.449,645.712 1028.105,645.853 C1029.026,645.932 1029.859,645.564 1030.465,644.957 L1062.172,670.369 C1061.363,671.459 1060.816,672.764 1060.69,674.215 C1060.362,678.018 1062.923,681.377 1066.542,682.209 L1050.181,767.773 C1050.101,767.762 1050.024,767.736 1049.941,767.729 C1049.035,767.65 1048.173,767.834 1047.398,768.186 L951.139,583.321 C951.585,583.054 951.984,582.719 952.332,582.331 L999.034,619.765 Z M1009.244,544.681 C1010.522,544.009 1011.522,542.825 1011.871,541.307 C1011.984,540.81 1011.997,540.319 1011.966,539.833 L1216.507,515.174 C1216.521,515.249 1216.516,515.323 1216.535,515.399 C1216.934,517.196 1218.239,518.545 1219.861,519.108 L1165.171,710.291 C1164.537,710.215 1163.879,710.268 1163.24,710.508 C1161.1,711.311 1160.017,713.695 1160.819,715.834 C1161.623,717.975 1164.003,719.059 1166.143,718.256 C1166.708,718.045 1167.195,717.717 1167.598,717.316 L1218.334,758.398 C1217.603,759.473 1217.383,760.869 1217.873,762.18 C1217.95,762.389 1218.056,762.576 1218.162,762.764 L1186.032,784.559 L1075.431,774.83 L1069.034,682.385 C1072.565,682.01 1075.457,679.188 1075.772,675.518 C1076.131,671.354 1073.047,667.688 1068.882,667.328 C1067.63,667.219 1066.438,667.455 1065.353,667.904 L1009.244,544.681 Z M1054.34,495.784 C1054.76,496.151 1055.238,496.456 1055.82,496.589 C1057.689,497.018 1059.546,495.848 1059.973,493.983 C1060.214,492.927 1059.908,491.905 1059.293,491.113 L1079.325,472.22 C1079.682,472.528 1080.089,472.779 1080.581,472.893 C1082.201,473.263 1083.812,472.248 1084.184,470.626 C1084.39,469.726 1084.138,468.851 1083.622,468.166 L1113.184,440.285 C1114.15,441.237 1115.367,441.958 1116.787,442.284 C1120.508,443.135 1124.189,441.065 1125.513,437.597 L1207.988,465.653 C1207.966,465.733 1207.928,465.803 1207.909,465.885 C1207.707,466.771 1207.769,467.65 1208.008,468.464 L1011.591,538.189 C1011.391,537.708 1011.112,537.269 1010.778,536.87 L1054.34,495.784 Z M1216.465,411.217 L1212.973,461.907 C1210.873,461.876 1208.958,463.152 1208.167,465.118 L1125.692,437.063 C1125.741,436.904 1125.814,436.759 1125.852,436.595 C1126.101,435.501 1126.084,434.416 1125.871,433.385 L1216.465,411.217 Z M1217.042,411.078 L1294.74,392.064 C1294.93,392.689 1295.223,393.253 1295.61,393.742 L1216.543,463.439 C1215.881,462.764 1215.034,462.259 1214.045,462.034 C1213.872,461.992 1213.703,461.99 1213.533,461.969 L1217.042,411.078 Z M1224.772,298.899 C1225.069,298.897 1225.371,298.87 1225.675,298.803 C1226.187,298.689 1226.647,298.475 1227.059,298.201 L1296.261,386.74 C1294.941,387.898 1294.254,389.683 1294.597,391.518 L1217.08,410.486 L1224.772,298.899 Z M993.51,40.759 C993.855,40.369 994.134,39.93 994.35,39.456 L1050.151,61.106 C1049.996,61.641 1049.957,62.217 1050.087,62.801 C1050.504,64.67 1052.356,65.842 1054.227,65.428 C1055.285,65.19 1056.106,64.489 1056.557,63.592 L1082.175,73.53 C1082.051,73.984 1082.023,74.471 1082.133,74.963 C1082.493,76.583 1084.103,77.605 1085.727,77.241 C1085.881,77.207 1086.023,77.151 1086.167,77.095 L1141.788,187.48 C1141.477,187.66 1141.19,187.865 1140.929,188.1 L993.51,40.759 Z M1125.588,90.374 C1125.144,91.655 1125.016,93.064 1125.333,94.485 C1126.165,98.213 1129.617,100.645 1133.318,100.347 L1143.456,186.873 C1143.376,186.886 1143.297,186.884 1143.215,186.901 C1142.888,186.974 1142.581,187.081 1142.283,187.21 L1086.668,76.84 C1087.126,76.553 1087.485,76.152 1087.728,75.685 L1125.588,90.374 Z M1227.814,151.399 C1227.464,152.089 1227.328,152.896 1227.509,153.711 C1227.541,153.851 1227.596,153.978 1227.641,154.111 L1148.864,189.551 C1147.941,187.77 1146.049,186.678 1144.017,186.807 L1133.877,100.282 C1134.042,100.255 1134.203,100.258 1134.367,100.222 C1136.351,99.779 1137.965,98.588 1139.007,97.019 L1227.814,151.399 Z M1224.671,290.636 C1224.407,290.642 1224.141,290.671 1223.874,290.73 C1223.338,290.851 1222.855,291.072 1222.43,291.366 L1201.283,264.308 C1202.061,263.605 1202.458,262.525 1202.213,261.429 C1201.851,259.806 1200.242,258.787 1198.619,259.149 C1198.241,259.234 1197.901,259.392 1197.598,259.595 L1147.688,195.738 C1149.051,194.542 1149.753,192.676 1149.332,190.783 C1149.276,190.533 1149.184,190.299 1149.094,190.065 L1227.871,154.624 C1228.407,155.592 1229.373,156.242 1230.464,156.378 L1224.671,290.636 Z M1257.473,456.823 L1217.811,465.646 C1217.626,464.998 1217.322,464.397 1216.908,463.873 L1295.979,394.166 C1296.189,394.379 1296.419,394.567 1296.662,394.74 L1257.473,456.823 Z M1297.107,448.585 C1297.439,449.526 1298.179,450.302 1299.225,450.542 C1300.844,450.91 1302.456,449.898 1302.827,448.277 C1302.903,447.949 1302.884,447.625 1302.853,447.307 L1336.426,439.84 C1336.843,441.209 1337.946,442.333 1339.442,442.675 C1341.671,443.185 1343.887,441.791 1344.397,439.562 C1344.445,439.351 1344.462,439.137 1344.477,438.928 L1475.64,439.069 L1482.024,449.18 L1447.292,488.264 C1445.929,487.185 1444.063,486.812 1442.317,487.466 C1439.667,488.453 1438.327,491.41 1439.321,494.059 C1439.64,494.91 1440.177,495.61 1440.825,496.158 L1315.326,662.564 C1314,661.678 1312.289,661.408 1310.68,662.014 C1310.475,662.092 1310.294,662.199 1310.104,662.299 L1286.234,622.259 C1287.567,621.326 1288.281,619.656 1287.906,617.968 C1287.406,615.738 1285.196,614.335 1282.966,614.833 C1282.626,614.91 1282.314,615.036 1282.017,615.185 L1224.39,518.522 C1226.087,517.38 1227.008,515.283 1226.537,513.167 C1226.249,511.879 1225.488,510.83 1224.494,510.123 L1257.822,457.324 L1297.107,448.585 Z M1454.146,413.653 C1454.638,415.398 1456.019,416.835 1457.913,417.269 C1459.196,417.562 1460.472,417.327 1461.538,416.732 L1475.282,438.505 L1344.473,438.363 C1344.467,438.26 1344.463,438.155 1344.449,438.053 L1454.146,413.653 Z M1490.999,439.086 L1482.415,448.743 L1476.306,439.068 L1490.999,439.086 Z M1593.153,324.981 C1593.235,325.045 1593.317,325.102 1593.401,325.159 L1531.505,434.267 C1531.151,434.09 1530.778,433.941 1530.374,433.85 C1527.616,433.218 1524.868,434.943 1524.237,437.702 C1524.171,437.991 1524.146,438.281 1524.13,438.569 L1492.249,438.526 L1593.153,324.981 Z M1753.007,513.515 C1752.978,513.623 1752.927,513.719 1752.901,513.829 C1752.769,514.413 1752.747,514.993 1752.776,515.565 L1662.458,523.993 C1662.19,522.388 1660.989,521.025 1659.304,520.64 C1657.077,520.131 1654.858,521.522 1654.349,523.75 C1654.272,524.09 1654.251,524.425 1654.259,524.757 L1542.21,535.213 C1541.907,533.19 1540.411,531.459 1538.296,530.974 C1537.866,530.876 1537.44,530.853 1537.019,530.864 L1529.927,443.907 C1531.729,443.658 1533.292,442.459 1533.978,440.718 L1753.007,513.515 Z M1528.089,443.839 C1528.517,443.938 1528.944,443.961 1529.364,443.95 L1536.456,530.907 C1535.823,530.995 1535.22,531.201 1534.671,531.508 L1482.728,449.238 L1491.751,439.086 L1524.138,439.122 C1524.261,441.346 1525.808,443.317 1528.089,443.839 Z M1317.336,665.25 C1317.311,665.17 1317.303,665.09 1317.274,665.014 C1317.156,664.699 1317.007,664.408 1316.838,664.133 L1418.435,593.761 C1418.784,594.174 1419.231,594.478 1419.731,594.655 L1410.429,634.183 C1409.099,633.92 1407.685,633.99 1406.32,634.501 C1402.744,635.845 1400.815,639.598 1401.62,643.222 L1317.336,665.25 Z M1329.311,705.816 L1272.398,708.682 L1309.143,670.668 C1310.515,671.852 1312.46,672.289 1314.275,671.609 C1314.475,671.535 1314.651,671.43 1314.835,671.332 L1332.195,700.453 C1330.408,701.629 1329.296,703.639 1329.311,705.816 Z M1442.675,497.161 L1428.964,555.421 C1428.411,555.343 1427.835,555.384 1427.274,555.595 C1425.483,556.263 1424.577,558.266 1425.249,560.056 C1425.63,561.069 1426.438,561.787 1427.39,562.109 L1421.097,588.857 C1420.63,588.798 1420.146,588.837 1419.671,589.013 C1418.118,589.595 1417.327,591.332 1417.911,592.889 C1417.966,593.035 1418.04,593.167 1418.114,593.298 L1316.502,663.68 C1316.282,663.398 1316.039,663.143 1315.769,662.916 L1441.269,496.507 C1441.702,496.797 1442.175,497.012 1442.675,497.161 Z M1222.65,519.282 C1223.1,519.181 1223.51,519.006 1223.901,518.803 L1281.528,615.465 C1280.177,616.394 1279.45,618.073 1279.829,619.771 C1280.325,622.001 1282.536,623.404 1284.767,622.906 C1285.118,622.828 1285.439,622.694 1285.744,622.538 L1309.615,662.578 C1307.697,663.871 1306.832,666.344 1307.68,668.607 C1307.922,669.25 1308.284,669.814 1308.724,670.289 L1271.574,708.723 L1168.786,713.895 C1168.748,713.572 1168.682,713.248 1168.563,712.93 C1168.072,711.621 1166.987,710.713 1165.73,710.385 L1220.402,519.262 C1221.122,519.427 1221.881,519.452 1222.65,519.282 Z M1011.768,538.724 L1208.187,469 C1208.803,470.472 1210.084,471.641 1211.759,472.022 C1214.516,472.651 1217.264,470.928 1217.894,468.169 C1218.047,467.499 1218.056,466.83 1217.95,466.192 L1257.048,457.496 L1224.017,509.824 C1222.958,509.233 1221.695,508.997 1220.418,509.282 C1217.921,509.841 1216.277,512.133 1216.44,514.613 L1011.921,539.271 C1011.887,539.083 1011.822,538.905 1011.768,538.724 Z M1252.398,728.561 C1251.605,727.953 1250.53,727.752 1249.523,728.129 C1247.966,728.713 1247.179,730.447 1247.763,732.002 C1247.88,732.32 1248.056,732.596 1248.258,732.844 L1224.374,757.557 C1223.268,756.641 1221.732,756.314 1220.294,756.854 C1219.653,757.094 1219.122,757.486 1218.691,757.963 L1167.969,716.891 C1168.499,716.193 1168.803,715.346 1168.818,714.459 L1271.002,709.316 L1252.398,728.561 Z M1256.915,789.637 C1256.689,789.975 1256.54,790.355 1256.466,790.756 L1198.035,785.615 L1219.066,763.855 C1220.173,764.803 1221.735,765.15 1223.196,764.602 C1223.802,764.375 1224.31,764.014 1224.727,763.574 L1256.915,789.637 Z M1218.478,763.23 C1218.537,763.311 1218.593,763.393 1218.659,763.465 L1197.312,785.553 L1186.922,784.639 L1218.478,763.23 Z M1140.558,844.266 C1139.186,843.082 1137.242,842.645 1135.422,843.326 C1134.189,843.789 1133.256,844.688 1132.694,845.771 L1111.145,836.041 L1186.183,785.139 L1196.807,786.074 L1140.558,844.266 Z M1083.102,854.385 C1082.604,853.783 1081.881,853.371 1081.042,853.299 C1080.979,853.293 1080.925,853.32 1080.861,853.318 L1078.695,822.01 L1109.995,836.143 L1083.102,854.385 Z M1049.061,777.936 C1049.747,777.994 1050.41,777.91 1051.027,777.719 L1065.056,815.23 L1008.658,789.768 C1009.04,788.777 1009.11,787.678 1008.817,786.596 L1044.751,774.701 C1045.443,776.451 1047.058,777.764 1049.061,777.936 Z M1079.938,853.424 L1066.057,816.305 L1078.112,821.746 L1080.301,853.383 C1080.182,853.404 1080.053,853.391 1079.938,853.424 Z M1008.426,790.283 L1065.333,815.979 L1079.43,853.672 C1079.186,853.797 1078.952,853.926 1078.752,854.111 L1007.894,791.104 C1008.097,790.846 1008.275,790.572 1008.426,790.283 Z M1075.471,775.4 L1185.294,785.061 L1110.542,835.77 L1078.65,821.371 L1075.471,775.4 Z M1078.068,821.107 L1065.779,815.559 L1051.548,777.502 C1053.122,776.811 1054.292,775.357 1054.551,773.559 L1074.902,775.35 L1078.068,821.107 Z M1067.583,682.404 C1067.885,682.432 1068.175,682.4 1068.47,682.391 L1074.862,774.781 L1054.602,772.998 C1054.68,770.566 1053.049,768.451 1050.735,767.877 L1067.095,682.311 C1067.259,682.338 1067.416,682.389 1067.583,682.404 Z M910.403,868.021 C912.546,867.217 913.628,864.832 912.821,862.695 C912.7,862.369 912.532,862.078 912.344,861.805 L1000.093,791.346 C1001.462,792.863 1003.665,793.486 1005.694,792.727 C1006.408,792.459 1007.017,792.041 1007.522,791.531 L1078.397,854.551 C1078.081,854.98 1077.836,855.465 1077.786,856.037 C1077.762,856.313 1077.828,856.568 1077.875,856.83 L836.108,925.504 C836.081,925.428 836.076,925.348 836.046,925.273 C835.836,924.711 835.534,924.217 835.193,923.754 L905.925,866.959 C907.032,868.15 908.784,868.625 910.403,868.021 Z M1093.538,891.396 C1092.237,892.002 1091.279,893.248 1091.149,894.779 C1090.952,897.057 1092.639,899.059 1094.915,899.254 C1095.133,899.273 1095.345,899.26 1095.555,899.244 L1113.584,1029.162 L1029.848,1100.002 C1029.014,1099.117 1027.881,1098.516 1026.579,1098.4 C1024.091,1098.188 1021.873,1099.789 1021.215,1102.104 L867.021,1067.332 C867.219,1066.234 867.158,1065.078 866.738,1063.957 C865.5,1060.652 861.814,1058.979 858.513,1060.213 C857.012,1060.777 855.874,1061.854 855.163,1063.158 L732.195,1003.092 C732.741,1001.623 732.102,999.967 730.652,999.309 C729.141,998.619 727.357,999.285 726.667,1000.801 C726.479,1001.217 726.413,1001.648 726.417,1002.076 L685.236,1006.408 C685.021,1005.086 684.175,1003.896 682.865,1003.299 C682.367,1003.076 681.848,1002.961 681.332,1002.938 L680.749,968.568 C681.79,968.475 682.762,967.887 683.225,966.867 C683.857,965.473 683.306,963.895 682.043,963.107 L720.08,893.348 C722.969,894.76 726.509,893.836 728.274,891.061 C728.466,890.758 728.608,890.438 728.748,890.119 L824.005,925.561 C823.576,926.889 823.549,928.354 824.077,929.76 C825.315,933.066 828.998,934.74 832.304,933.5 C835.354,932.359 836.985,929.137 836.251,926.049 L1078.007,857.377 C1078.412,858.408 1079.348,859.189 1080.526,859.293 C1080.862,859.32 1081.18,859.258 1081.491,859.184 L1093.538,891.396 Z M1135.778,1004.354 C1134.12,1005.084 1132.886,1006.652 1132.718,1008.59 C1132.606,1009.9 1133.013,1011.131 1133.751,1012.105 L1114.094,1028.734 L1096.115,899.164 C1096.216,899.143 1096.318,899.125 1096.417,899.096 L1135.778,1004.354 Z M1243.498,1128.898 C1243.178,1129.225 1242.909,1129.592 1242.709,1130.012 L1126.077,1083.826 C1126.203,1083.449 1126.298,1083.061 1126.333,1082.648 C1126.578,1079.828 1124.488,1077.348 1121.671,1077.102 C1121.373,1077.076 1121.082,1077.092 1120.795,1077.115 L1114.186,1029.395 L1134.115,1012.533 C1134.948,1013.412 1136.081,1014.018 1137.384,1014.129 C1138.739,1014.246 1140.007,1013.818 1140.997,1013.035 L1243.498,1128.898 Z M1078.274,1314.17 C1078.164,1314.15 1078.063,1314.12 1077.95,1314.11 C1077.35,1314.06 1076.775,1314.12 1076.213,1314.22 L1055.356,1225.943 C1056.909,1225.457 1058.092,1224.076 1058.239,1222.357 C1058.435,1220.082 1056.749,1218.076 1054.473,1217.881 C1054.128,1217.85 1053.791,1217.879 1053.464,1217.93 L1027.589,1108.41 C1029.55,1107.83 1031.058,1106.105 1031.244,1103.945 C1031.282,1103.498 1031.244,1103.064 1031.17,1102.641 L1116.314,1083.596 C1116.811,1085.35 1118.213,1086.73 1120.03,1087.17 L1078.274,1314.17 Z M964.691,1253.838 C965.13,1252.955 965.227,1251.949 964.994,1250.998 L1050.29,1223.531 C1050.853,1224.932 1052.152,1225.982 1053.762,1226.121 C1054.12,1226.152 1054.467,1226.123 1054.805,1226.063 L1075.663,1314.34 C1074.17,1314.77 1072.905,1315.72 1072.065,1317.01 L964.691,1253.838 Z M841.972,1303.18 C841.794,1302.82 841.587,1302.48 841.321,1302.16 C839.499,1300 836.268,1299.72 834.102,1301.54 C833.879,1301.73 833.687,1301.94 833.503,1302.16 L795.072,1273.1 L797.245,1247.082 C798.456,1247.117 799.685,1246.742 800.685,1245.9 C801.725,1245.025 802.319,1243.822 802.466,1242.57 L956.872,1252.021 C956.875,1252.477 956.947,1252.926 957.102,1253.365 L841.972,1303.18 Z M971.048,1499.86 C970.961,1499.92 970.861,1499.97 970.775,1500.04 C970.316,1500.43 969.95,1500.88 969.629,1501.35 L892.458,1453.68 C893.212,1452.24 893.074,1450.42 891.96,1449.1 C890.488,1447.35 887.881,1447.13 886.131,1448.6 C885.866,1448.82 885.647,1449.08 885.452,1449.35 L789.714,1390.2 C790.69,1388.41 790.538,1386.12 789.142,1384.46 C788.858,1384.13 788.533,1383.85 788.19,1383.61 L834.909,1309.92 C836.497,1310.81 838.466,1310.79 840.06,1309.82 L971.048,1499.86 Z M795.017,1273.76 L833.169,1302.61 C831.926,1304.46 831.977,1306.97 833.48,1308.76 C833.765,1309.09 834.09,1309.37 834.434,1309.61 L787.715,1383.3 C787.155,1382.99 786.55,1382.79 785.926,1382.71 L795.017,1273.76 Z M690.209,1193.789 C690.267,1193.701 690.328,1193.615 690.376,1193.527 L792.639,1240.125 C791.978,1241.814 792.218,1243.793 793.466,1245.279 C794.315,1246.289 795.473,1246.869 796.687,1247.035 L794.542,1272.69 L690.209,1193.789 Z M1025.702,1108.609 C1026.16,1108.65 1026.604,1108.607 1027.039,1108.529 L1052.912,1218.049 C1051.345,1218.529 1050.144,1219.912 1049.994,1221.645 C1049.955,1222.111 1050.01,1222.563 1050.119,1222.992 L964.817,1250.463 C964.659,1250.061 964.451,1249.672 964.157,1249.322 C962.685,1247.576 960.078,1247.352 958.329,1248.822 C957.498,1249.525 957.021,1250.484 956.898,1251.482 L802.489,1242.012 C802.499,1240.836 802.127,1239.65 801.309,1238.682 C801.214,1238.566 801.097,1238.479 800.992,1238.373 L862.134,1170.051 C862.458,1170.313 862.807,1170.547 863.203,1170.729 C865.78,1171.9 868.818,1170.76 869.989,1168.189 C871.159,1165.611 870.023,1162.574 867.446,1161.402 C866.772,1161.096 866.067,1160.955 865.373,1160.949 L861.324,1072.543 C861.884,1072.492 862.445,1072.396 862.995,1072.188 C864.996,1071.439 866.381,1069.791 866.905,1067.879 L1021.111,1102.66 C1021.087,1102.795 1021.047,1102.926 1021.034,1103.066 C1020.791,1105.883 1022.88,1108.367 1025.702,1108.609 Z M1116.127,1081.77 C1116.089,1082.205 1116.125,1082.629 1116.195,1083.045 L1031.056,1102.115 C1030.88,1101.498 1030.592,1100.932 1030.211,1100.43 L1113.676,1029.824 L1120.25,1077.201 C1118.066,1077.629 1116.327,1079.438 1116.127,1081.77 Z M651.865,1175.359 C652.228,1174.377 652.083,1173.236 651.362,1172.379 C650.959,1171.9 650.443,1171.58 649.886,1171.424 L656.079,1139.178 L678.523,1130.697 C679.012,1131.805 679.878,1132.75 681.067,1133.293 C683.643,1134.465 686.682,1133.326 687.854,1130.752 C689.024,1128.174 687.888,1125.141 685.311,1123.965 C684.684,1123.682 684.029,1123.539 683.38,1123.516 L681.473,1011.17 C682.923,1011.057 684.274,1010.197 684.92,1008.777 C685.188,1008.189 685.291,1007.574 685.277,1006.967 L726.512,1002.633 C726.698,1003.545 727.249,1004.367 728.163,1004.783 C729.558,1005.422 731.146,1004.863 731.932,1003.592 L854.903,1063.648 C854.262,1065.119 854.162,1066.826 854.768,1068.449 C855.731,1071.016 858.171,1072.58 860.763,1072.574 L864.81,1160.99 C863.058,1161.168 861.441,1162.227 860.658,1163.947 C859.75,1165.943 860.246,1168.211 861.712,1169.678 L800.591,1237.979 C798.719,1236.482 795.993,1236.461 794.089,1238.059 C793.563,1238.504 793.153,1239.031 792.853,1239.604 L690.607,1193.012 C691.128,1191.652 690.934,1190.066 689.93,1188.873 C688.457,1187.125 685.852,1186.9 684.101,1188.371 C683.683,1188.723 683.357,1189.145 683.114,1189.6 L651.865,1175.359 Z M524.984,1396.27 C524.911,1396.23 524.85,1396.18 524.775,1396.15 C524.229,1395.9 523.666,1395.76 523.099,1395.67 L532.954,1305.5 C534.577,1305.56 536.155,1304.66 536.871,1303.08 C537.816,1301 536.896,1298.55 534.812,1297.61 C534.497,1297.46 534.174,1297.38 533.848,1297.32 L546.072,1185.443 C548.113,1185.553 550.111,1184.438 551.01,1182.463 C551.327,1181.766 551.46,1181.041 551.459,1180.322 L646.093,1174.77 C646.173,1175.299 646.385,1175.813 646.753,1176.252 C646.932,1176.465 647.139,1176.637 647.359,1176.785 L524.984,1396.27 Z M363.971,1074.031 C364.385,1073.221 364.553,1072.32 364.504,1071.426 L423.998,1064.869 C424.107,1065.418 424.339,1065.945 424.724,1066.4 C425.956,1067.867 428.146,1068.055 429.61,1066.824 C430.438,1066.123 430.841,1065.121 430.828,1064.119 L458.14,1061.109 C458.243,1061.57 458.438,1062.014 458.764,1062.398 C459.831,1063.67 461.73,1063.832 463.002,1062.76 C463.709,1062.164 464.061,1061.314 464.06,1060.457 L504.429,1056.01 C504.627,1057.352 505.162,1058.662 506.1,1059.775 C508.555,1062.697 512.74,1063.258 515.885,1061.285 L564.823,1133.359 C564.756,1133.41 564.684,1133.445 564.622,1133.498 C562.456,1135.32 562.176,1138.551 563.997,1140.717 C565.818,1142.883 569.05,1143.16 571.215,1141.34 C571.742,1140.898 572.151,1140.367 572.452,1139.795 L608.899,1156.402 L551.014,1178.277 C550.522,1177.166 549.655,1176.217 548.466,1175.674 C546.135,1174.617 543.44,1175.459 542.077,1177.535 L363.971,1074.031 Z M622.254,1151.355 L609.643,1156.121 L572.669,1139.271 C573.326,1137.582 573.088,1135.605 571.838,1134.121 C570.194,1132.166 567.408,1131.768 565.289,1133.043 L516.353,1060.969 C516.486,1060.871 516.633,1060.801 516.761,1060.689 C516.993,1060.498 517.179,1060.268 517.38,1060.055 L622.254,1151.355 Z M646.421,1172.881 L610.368,1156.451 L622.738,1151.775 L646.621,1172.566 C646.546,1172.67 646.479,1172.771 646.421,1172.881 Z M551.214,1178.805 L609.623,1156.73 L646.198,1173.4 C646.115,1173.664 646.07,1173.936 646.061,1174.209 L551.419,1179.76 C551.381,1179.432 551.312,1179.115 551.214,1178.805 Z M655.461,1139.41 L649.343,1171.324 C648.568,1171.25 647.766,1171.475 647.119,1172.014 C647.073,1172.055 647.037,1172.102 646.994,1172.145 L623.336,1151.551 L655.461,1139.41 Z M680.615,1011.146 C680.715,1011.16 680.811,1011.178 680.908,1011.184 L682.818,1123.543 C681.008,1123.676 679.325,1124.744 678.523,1126.51 C677.978,1127.711 677.952,1129.002 678.321,1130.17 L656.203,1138.525 L680.615,1011.146 Z M612.131,1014.092 C611.946,1012.73 611.1,1011.484 609.751,1010.871 C607.9,1010.029 605.76,1010.672 604.645,1012.289 L429.154,886.27 L450.953,840.48 L501.719,833.889 C501.972,835.236 502.747,836.484 503.996,837.275 C506.384,838.793 509.55,838.086 511.067,835.699 C511.315,835.311 511.482,834.895 511.613,834.475 L620.712,862.076 C620.411,863.688 621.087,865.389 622.554,866.322 C624.481,867.551 627.039,866.977 628.263,865.049 C628.456,864.746 628.589,864.424 628.696,864.096 L673.886,875.529 C673.443,877.799 674.581,880.162 676.78,881.162 C677.406,881.445 678.061,881.588 678.708,881.611 L680.085,962.689 C679.097,962.826 678.189,963.396 677.746,964.373 C677.059,965.887 677.727,967.668 679.241,968.355 C679.546,968.496 679.868,968.543 680.184,968.576 L680.768,1002.963 C679.341,1003.1 678.024,1003.955 677.389,1005.354 C677.107,1005.973 677.008,1006.629 677.042,1007.268 L612.131,1014.092 Z M375.197,998.309 C374.715,998.111 374.207,997.996 373.688,997.953 L375.437,938.127 C375.995,938.09 376.549,937.934 377.056,937.617 C378.678,936.6 379.167,934.461 378.147,932.84 C377.572,931.92 376.635,931.379 375.639,931.258 L376.443,903.766 C376.914,903.729 377.378,903.619 377.805,903.352 C379.211,902.467 379.636,900.611 378.751,899.205 C378.26,898.42 377.465,897.979 376.616,897.863 L377.805,857.242 C379.161,857.232 380.532,856.881 381.765,856.107 C382.54,855.623 383.176,855.002 383.707,854.316 L428.449,886.445 L375.197,998.309 Z M464.5,801.301 C462.336,802.658 461.555,805.363 462.528,807.641 L384.371,846.121 C384.291,845.977 384.241,845.82 384.15,845.678 C383.555,844.727 382.776,843.971 381.896,843.395 L472.087,694.766 C472.664,695.07 473.268,695.264 473.885,695.336 L467.263,800.527 C466.319,800.52 465.36,800.76 464.5,801.301 Z M385.202,848.445 C385.098,847.824 384.886,847.219 384.621,846.625 L462.777,808.145 C462.817,808.217 462.841,808.293 462.885,808.363 C463.369,809.133 464.036,809.711 464.782,810.117 L450.574,839.961 L385.202,848.445 Z M385.244,849.008 L450.287,840.566 L428.69,885.936 L384.036,853.871 C384.989,852.434 385.401,850.719 385.244,849.008 Z M502.418,830.205 C501.805,831.174 501.568,832.266 501.649,833.33 L451.24,839.873 L465.284,810.371 C466.76,810.977 468.493,810.895 469.949,809.98 C472.345,808.479 473.067,805.314 471.562,802.918 C471.197,802.336 470.729,801.857 470.205,801.48 L491.7,767.684 L505.347,828.045 C504.18,828.375 503.118,829.102 502.418,830.205 Z M679.534,871.439 C677.367,871.17 675.187,872.287 674.24,874.379 C674.149,874.576 674.099,874.781 674.035,874.984 L628.843,863.553 C629.126,861.949 628.447,860.264 626.991,859.338 C625.061,858.111 622.507,858.684 621.282,860.611 C621.096,860.906 620.964,861.215 620.86,861.531 L511.761,833.93 C511.868,833.379 511.872,832.82 511.797,832.271 L692.93,797.666 L679.534,871.439 Z M227.611,663.365 C227.949,663.064 228.262,662.73 228.515,662.33 C228.885,661.75 229.117,661.123 229.229,660.486 L309.717,670.352 C309.716,671.348 310.153,672.328 311.06,672.902 C312.462,673.793 314.32,673.377 315.211,671.973 C315.391,671.689 315.483,671.379 315.56,671.068 L349.697,675.252 C349.635,676.686 350.297,678.109 351.593,678.934 C353.524,680.158 356.078,679.588 357.304,677.656 C357.584,677.215 357.759,676.738 357.856,676.254 L469.398,689.926 C469.284,691.678 470.061,693.426 471.6,694.48 L381.406,843.117 C379.074,841.82 376.141,841.77 373.719,843.287 C373.542,843.4 373.398,843.541 373.232,843.666 L227.611,663.365 Z M11.043,659.359 L77.65,652.464 C77.806,653.24 78.256,653.956 78.977,654.416 C80.379,655.306 82.238,654.89 83.131,653.486 C83.644,652.676 83.679,651.732 83.383,650.891 L165.334,613.435 L220.02,656.647 C219.972,656.712 219.913,656.767 219.87,656.837 C219.381,657.605 219.147,658.455 219.101,659.303 L11.043,659.359 Z M2.821,663.967 C5.212,665.484 8.376,664.775 9.892,662.387 C10.379,661.617 10.615,660.768 10.66,659.922 L219.09,659.865 C219.177,661.461 219.995,662.99 221.444,663.91 C223.265,665.064 225.532,664.922 227.182,663.734 L372.789,844.014 C370.024,846.416 369.326,850.521 371.333,853.721 C372.672,855.854 374.905,857.07 377.241,857.23 L376.051,897.842 C375.554,897.865 375.058,897.969 374.605,898.252 C373.197,899.137 372.772,900.994 373.656,902.402 C374.165,903.211 375,903.648 375.879,903.746 L375.074,931.23 C374.492,931.254 373.903,931.412 373.37,931.744 C371.746,932.764 371.257,934.9 372.276,936.523 C372.87,937.469 373.844,938.018 374.875,938.119 L373.126,997.936 C372.238,997.957 371.342,998.191 370.535,998.697 C368.138,1000.201 367.416,1003.363 368.92,1005.76 C370.424,1008.158 373.585,1008.883 375.981,1007.377 C378.379,1005.873 379.101,1002.711 377.598,1000.316 C377.113,999.543 376.446,998.969 375.703,998.561 L428.915,886.781 L604.359,1012.775 C604.335,1012.826 604.299,1012.873 604.274,1012.926 C603.329,1015.006 604.25,1017.453 606.33,1018.402 C608.411,1019.348 610.862,1018.432 611.807,1016.352 C612.056,1015.799 612.169,1015.225 612.17,1014.654 L677.095,1007.83 C677.338,1009.105 678.17,1010.252 679.443,1010.83 C679.646,1010.922 679.854,1010.98 680.061,1011.039 L655.585,1138.76 L622.854,1151.129 L517.773,1059.652 C520.008,1056.889 520.054,1052.85 517.684,1050.029 C514.99,1046.834 510.22,1046.424 507.02,1049.111 C505.092,1050.732 504.196,1053.113 504.363,1055.447 L464.01,1059.895 C463.915,1059.406 463.712,1058.928 463.37,1058.521 C462.298,1057.248 460.401,1057.088 459.131,1058.158 C458.397,1058.773 458.044,1059.664 458.071,1060.549 L430.773,1063.555 C430.671,1062.982 430.433,1062.42 430.028,1061.938 C428.796,1060.469 426.613,1060.285 425.148,1061.518 C424.294,1062.234 423.886,1063.275 423.928,1064.313 L364.443,1070.863 C364.298,1069.988 363.942,1069.135 363.328,1068.402 C361.508,1066.24 358.276,1065.961 356.109,1067.783 C353.943,1069.604 353.667,1072.836 355.486,1075 C357.309,1077.166 360.539,1077.443 362.704,1075.621 C363.094,1075.297 363.4,1074.912 363.668,1074.506 L541.795,1178.021 C541.76,1178.09 541.712,1178.146 541.681,1178.219 C540.509,1180.791 541.65,1183.832 544.223,1185.002 C544.644,1185.193 545.075,1185.303 545.512,1185.375 L533.288,1297.25 C531.651,1297.17 530.057,1298.07 529.337,1299.66 C528.389,1301.74 529.31,1304.19 531.391,1305.13 C531.719,1305.28 532.055,1305.37 532.394,1305.43 L522.542,1395.6 C519.968,1395.44 517.442,1396.83 516.311,1399.32 C514.848,1402.53 516.27,1406.32 519.485,1407.78 C522.697,1409.24 526.487,1407.83 527.948,1404.61 C529.298,1401.65 528.171,1398.21 525.472,1396.55 L647.851,1177.063 C648.867,1177.506 650.089,1177.379 650.995,1176.617 C651.252,1176.398 651.454,1176.141 651.62,1175.869 L682.896,1190.119 C682.404,1191.467 682.608,1193.025 683.597,1194.199 C685.069,1195.949 687.676,1196.17 689.426,1194.701 C689.593,1194.563 689.733,1194.402 689.873,1194.24 L794.488,1273.36 L785.364,1382.66 C784.151,1382.63 782.926,1383 781.923,1383.84 C779.756,1385.66 779.479,1388.89 781.301,1391.06 C783.122,1393.22 786.354,1393.5 788.521,1391.68 C788.875,1391.38 789.156,1391.04 789.41,1390.68 L885.148,1449.83 C884.376,1451.27 884.505,1453.1 885.626,1454.43 C887.098,1456.18 889.706,1456.4 891.456,1454.93 C891.732,1454.7 891.955,1454.43 892.152,1454.15 L969.324,1501.83 C968.07,1504.08 968.242,1506.96 970,1509.05 C972.273,1511.75 976.304,1512.1 979.006,1509.82 C981.706,1507.55 982.055,1503.52 979.783,1500.82 C977.706,1498.35 974.172,1497.87 971.515,1499.54 L840.527,1309.5 C840.581,1309.46 840.644,1309.43 840.698,1309.38 C842.396,1307.95 842.915,1305.66 842.19,1303.7 L957.319,1253.883 C957.458,1254.148 957.622,1254.41 957.825,1254.652 C959.296,1256.402 961.905,1256.621 963.655,1255.154 C963.949,1254.906 964.184,1254.617 964.388,1254.314 L1071.754,1317.48 C1071.363,1318.22 1071.111,1319.04 1071.035,1319.93 C1070.73,1323.45 1073.337,1326.54 1076.854,1326.84 C1080.369,1327.15 1083.468,1324.54 1083.771,1321.02 C1084.049,1317.81 1081.886,1314.97 1078.829,1314.27 L1120.585,1087.275 C1120.652,1087.285 1120.717,1087.307 1120.789,1087.313 C1122.998,1087.504 1124.985,1086.252 1125.865,1084.348 L1242.496,1130.533 C1242.405,1130.822 1242.337,1131.121 1242.31,1131.432 C1242.113,1133.711 1243.802,1135.713 1246.079,1135.91 C1248.356,1136.105 1250.36,1134.42 1250.555,1132.143 C1250.751,1129.865 1249.065,1127.863 1246.789,1127.668 C1245.714,1127.574 1244.71,1127.914 1243.917,1128.52 L1141.41,1012.654 C1142.247,1011.828 1142.82,1010.73 1142.929,1009.469 C1143.174,1006.646 1141.082,1004.164 1138.262,1003.922 C1137.578,1003.863 1136.916,1003.949 1136.299,1004.141 L1096.943,898.898 C1098.274,898.305 1099.259,897.045 1099.392,895.49 C1099.588,893.213 1097.903,891.211 1095.625,891.014 C1095.081,890.967 1094.552,891.033 1094.059,891.184 L1082.02,858.986 C1082.97,858.549 1083.687,857.672 1083.784,856.555 C1083.836,855.939 1083.653,855.381 1083.376,854.879 L1110.596,836.414 L1132.462,846.285 C1132.026,847.416 1131.967,848.699 1132.427,849.92 C1133.42,852.574 1136.374,853.916 1139.021,852.924 C1141.672,851.93 1143.016,848.979 1142.021,846.328 C1141.779,845.684 1141.417,845.119 1140.978,844.645 L1197.53,786.137 L1256.417,791.318 C1256.419,791.662 1256.471,792.012 1256.597,792.354 C1257.178,793.912 1258.915,794.701 1260.471,794.119 C1262.028,793.533 1262.814,791.799 1262.229,790.242 C1261.649,788.688 1259.917,787.895 1258.358,788.48 C1257.931,788.639 1257.569,788.893 1257.27,789.197 L1225.097,763.148 C1225.878,762.064 1226.121,760.623 1225.618,759.275 C1225.425,758.764 1225.139,758.314 1224.79,757.936 L1248.655,733.246 C1249.459,733.916 1250.584,734.16 1251.635,733.768 C1253.192,733.182 1253.979,731.449 1253.394,729.891 C1253.259,729.529 1253.057,729.213 1252.814,728.943 L1271.826,709.273 L1329.364,706.379 C1329.389,706.643 1329.4,706.904 1329.458,707.172 C1330.229,710.615 1333.645,712.785 1337.091,712.018 C1340.535,711.246 1342.706,707.832 1341.938,704.385 C1341.167,700.941 1337.751,698.771 1334.306,699.541 C1333.72,699.672 1333.189,699.902 1332.685,700.172 L1315.326,671.055 C1317.035,669.91 1317.894,667.834 1317.479,665.795 L1401.762,643.767 C1401.811,643.927 1401.831,644.088 1401.89,644.248 C1403.358,648.158 1407.72,650.142 1411.632,648.675 C1415.546,647.21 1417.524,642.849 1416.06,638.935 C1415.177,636.574 1413.233,634.935 1410.978,634.312 L1420.276,594.792 C1420.769,594.871 1421.286,594.839 1421.786,594.651 C1423.345,594.064 1424.128,592.333 1423.546,590.775 C1423.21,589.88 1422.489,589.25 1421.646,588.978 L1427.937,562.244 C1428.515,562.339 1429.122,562.305 1429.71,562.083 C1431.505,561.414 1432.411,559.417 1431.739,557.624 C1431.349,556.58 1430.503,555.848 1429.515,555.542 L1443.224,497.289 C1444.099,497.445 1445.021,497.396 1445.913,497.063 C1448.562,496.068 1449.905,493.115 1448.913,490.466 C1448.647,489.75 1448.226,489.139 1447.718,488.635 L1482.337,449.678 L1534.194,531.811 C1533.206,532.514 1532.45,533.551 1532.159,534.827 C1531.528,537.584 1533.251,540.333 1536.011,540.964 C1538.771,541.595 1541.515,539.87 1542.146,537.112 C1542.249,536.663 1542.269,536.218 1542.253,535.777 L1654.302,525.321 C1654.558,526.939 1655.761,528.319 1657.458,528.706 C1659.687,529.216 1661.901,527.824 1662.411,525.596 C1662.491,525.246 1662.511,524.898 1662.501,524.555 L1752.819,516.127 C1753.171,518.682 1755.044,520.876 1757.706,521.485 C1761.147,522.273 1764.575,520.121 1765.362,516.68 C1766.149,513.239 1763.999,509.81 1760.558,509.022 C1757.415,508.304 1754.306,510.052 1753.187,512.982 L1534.159,440.185 C1534.177,440.116 1534.208,440.056 1534.226,439.987 C1534.722,437.826 1533.757,435.684 1531.993,434.549 L1593.892,325.441 C1594.161,325.57 1594.448,325.679 1594.757,325.75 C1596.983,326.26 1599.2,324.869 1599.71,322.64 C1600.218,320.412 1598.827,318.192 1596.601,317.682 C1594.372,317.172 1592.159,318.567 1591.647,320.794 C1591.321,322.222 1591.778,323.638 1592.731,324.609 L1491.495,438.527 L1475.95,438.505 L1462.015,416.431 C1463.001,415.728 1463.757,414.692 1464.05,413.417 C1464.679,410.655 1462.956,407.91 1460.198,407.278 C1457.44,406.647 1454.692,408.372 1454.062,411.129 C1453.907,411.801 1453.899,412.469 1454.005,413.108 L1344.324,437.504 C1343.921,436.104 1342.81,434.954 1341.288,434.605 C1339.06,434.097 1336.843,435.49 1336.334,437.718 C1336.212,438.252 1336.206,438.785 1336.285,439.292 L1302.733,446.757 C1302.43,445.754 1301.659,444.923 1300.567,444.674 C1298.947,444.302 1297.333,445.315 1296.962,446.936 C1296.875,447.312 1296.881,447.686 1296.933,448.044 L1258.245,456.65 L1297.138,395.039 C1298.197,395.627 1299.459,395.862 1300.736,395.578 C1303.5,394.962 1305.238,392.223 1304.622,389.463 C1304.004,386.7 1301.266,384.961 1298.503,385.577 C1297.832,385.728 1297.225,386.008 1296.693,386.378 L1227.5,297.853 C1228.59,296.886 1229.151,295.389 1228.812,293.866 C1228.418,292.095 1226.939,290.864 1225.233,290.674 L1231.028,156.41 C1231.234,156.4 1231.441,156.381 1231.648,156.335 C1233.52,155.919 1234.693,154.069 1234.278,152.2 C1233.86,150.331 1232.01,149.157 1230.139,149.571 C1229.284,149.762 1228.586,150.263 1228.107,150.918 L1139.29,96.532 C1140.174,94.961 1140.529,93.084 1140.106,91.188 C1139.197,87.11 1135.151,84.543 1131.072,85.455 C1128.612,86.001 1126.719,87.698 1125.789,89.846 L1087.94,75.162 C1088.082,74.684 1088.123,74.169 1088.004,73.648 C1087.644,72.022 1086.036,71.006 1084.417,71.374 C1083.482,71.579 1082.758,72.204 1082.37,73.001 L1056.768,63.069 C1056.941,62.508 1056.992,61.903 1056.855,61.288 C1056.437,59.419 1054.587,58.246 1052.717,58.661 C1051.628,58.903 1050.787,59.64 1050.346,60.578 L994.552,38.931 C994.829,38.086 994.907,37.164 994.699,36.234 C994.084,33.475 991.347,31.736 988.585,32.35 C985.825,32.97 984.083,35.706 984.699,38.466 C985.314,41.229 988.055,42.967 990.815,42.348 C991.702,42.15 992.47,41.715 993.103,41.149 L1140.521,188.491 C1139.458,189.681 1138.956,191.34 1139.328,193.017 C1139.945,195.775 1142.683,197.515 1145.445,196.899 C1146.117,196.748 1146.724,196.471 1147.257,196.101 L1197.162,259.952 C1196.453,260.655 1196.102,261.691 1196.337,262.74 C1196.699,264.364 1198.306,265.383 1199.929,265.019 C1200.261,264.947 1200.557,264.81 1200.83,264.644 L1221.997,291.726 C1220.94,292.694 1220.401,294.17 1220.735,295.668 C1221.123,297.401 1222.547,298.622 1224.209,298.851 L1216.506,410.627 L1125.72,432.844 C1124.988,430.278 1122.949,428.167 1120.164,427.529 C1116.089,426.597 1112.032,429.144 1111.099,433.218 C1110.537,435.675 1111.254,438.113 1112.794,439.876 L1083.235,467.752 C1082.868,467.419 1082.445,467.142 1081.922,467.021 C1080.303,466.65 1078.688,467.663 1078.319,469.283 C1078.106,470.215 1078.385,471.115 1078.938,471.807 L1058.905,490.7 C1058.477,490.302 1057.98,489.972 1057.368,489.832 C1055.499,489.401 1053.642,490.566 1053.215,492.438 C1052.967,493.521 1053.3,494.569 1053.957,495.37 L1010.389,536.46 C1009.745,535.848 1008.95,535.382 1008.021,535.17 C1005.26,534.536 1002.516,536.264 1001.884,539.022 C1001.251,541.779 1002.977,544.528 1005.733,545.157 C1006.774,545.398 1007.816,545.298 1008.74,544.934 L1064.851,668.123 C1063.962,668.57 1063.172,669.18 1062.522,669.93 L1030.82,644.519 C1031.101,644.105 1031.318,643.65 1031.363,643.117 C1031.507,641.458 1030.277,640.003 1028.621,639.862 C1027.669,639.778 1026.819,640.179 1026.208,640.822 L1004.754,623.625 C1005.088,623.146 1005.317,622.582 1005.371,621.957 C1005.538,620.048 1004.125,618.372 1002.219,618.205 C1001.106,618.11 1000.083,618.559 999.38,619.319 L952.684,581.89 C953.201,581.167 953.553,580.312 953.634,579.362 C953.877,576.546 951.789,574.062 948.97,573.82 C946.15,573.578 943.667,575.666 943.426,578.485 C943.199,581.117 945.015,583.43 947.548,583.925 L909.18,860.018 C908.623,859.988 908.053,860.063 907.498,860.27 C905.79,860.912 904.773,862.564 904.836,864.295 L729.153,886.553 C728.858,884.838 727.89,883.242 726.302,882.236 C723.324,880.346 719.374,881.229 717.481,884.207 C717.161,884.713 716.948,885.252 716.782,885.801 L683.918,877.486 C684.318,875.467 683.456,873.391 681.72,872.242 L725.741,797.066 C725.89,797.146 726.017,797.248 726.172,797.318 C729.973,799.045 734.463,797.367 736.192,793.563 C737.923,789.756 736.241,785.275 732.437,783.543 C730.142,782.5 727.611,782.713 725.573,783.865 L704.19,749.322 C704.592,749.027 704.951,748.668 705.172,748.182 C705.86,746.664 705.188,744.887 703.675,744.199 C702.805,743.801 701.868,743.893 701.079,744.297 L686.606,720.918 C687.083,720.576 687.487,720.121 687.748,719.549 C688.542,717.807 687.771,715.754 686.028,714.961 C685.012,714.498 683.897,714.578 682.983,715.063 L651.486,664.176 C652.213,663.668 652.83,662.982 653.227,662.115 C653.761,660.939 653.793,659.674 653.449,658.527 L740.555,627.105 C740.66,627.349 740.768,627.597 740.916,627.832 C742.419,630.228 745.581,630.953 747.977,629.45 C750.373,627.945 751.096,624.783 749.591,622.388 C749.346,621.998 749.043,621.667 748.72,621.368 L820.561,534.745 C821.885,535.707 823.712,535.831 825.185,534.906 C827.121,533.692 827.705,531.141 826.489,529.205 C826.298,528.9 826.065,528.641 825.817,528.405 L883.722,458.581 C885.777,460.137 888.653,460.366 890.966,458.913 C893.957,457.037 894.859,453.092 892.983,450.103 C891.106,447.112 887.161,446.209 884.17,448.085 C881.44,449.799 880.478,453.233 881.758,456.097 L675.407,559.5 C675.373,559.436 675.352,559.371 675.313,559.311 C674.134,557.431 671.939,556.6 669.889,557.044 L636.505,436.124 C636.791,436.025 637.069,435.899 637.336,435.731 C639.271,434.518 639.854,431.966 638.638,430.029 C637.423,428.093 634.874,427.508 632.938,428.723 C631.001,429.938 630.417,432.49 631.634,434.425 C632.206,435.338 633.08,435.938 634.041,436.204 L603.298,587.82 C602.136,587.65 600.915,587.853 599.84,588.527 C597.444,590.032 596.723,593.193 598.226,595.589 C598.592,596.171 599.059,596.65 599.584,597.029 L539.277,691.836 C538.004,691.131 536.405,691.104 535.083,691.934 C533.148,693.148 532.564,695.699 533.78,697.637 C534.071,698.1 534.442,698.48 534.858,698.783 L516.411,727.787 C515.489,727.295 514.355,727.25 513.405,727.846 C511.998,728.729 511.572,730.586 512.456,731.996 C512.661,732.32 512.93,732.582 513.223,732.801 L491.952,766.238 L475.886,695.174 C477.051,694.84 478.11,694.115 478.812,693.012 C480.329,690.623 479.622,687.455 477.234,685.939 C474.845,684.422 471.681,685.129 470.162,687.52 C470.155,687.529 470.154,687.539 470.145,687.551 L261.011,572.248 C261.71,570.703 261.197,568.847 259.721,567.91 C258.104,566.882 255.965,567.361 254.937,568.976 C254.341,569.919 254.266,571.035 254.616,572.01 L165.426,612.783 L152.018,602.191 C152.115,602.057 152.233,601.943 152.323,601.802 C154.563,598.275 153.52,593.595 149.992,591.357 C146.464,589.115 141.789,590.162 139.549,593.689 C138.196,595.817 138.058,598.356 138.919,600.533 L101.743,616.926 C101.507,616.484 101.2,616.082 100.749,615.794 C99.344,614.901 97.489,615.32 96.599,616.724 C96.085,617.528 96.047,618.47 96.335,619.308 L71.18,630.4 C70.907,629.882 70.513,629.421 69.981,629.083 C68.366,628.056 66.226,628.535 65.198,630.152 C64.601,631.091 64.527,632.207 64.877,633.181 L10.118,657.326 C9.716,656.535 9.122,655.828 8.318,655.316 C5.931,653.8 2.764,654.507 1.246,656.894 C-0.271,659.285 0.446789442,662.451 2.821,663.967 L2.821,663.967 Z" id="Fill-3" fill="#CCCCCC"/>
                            <path d="M510.533,441.101 C510.731,441.458 511.008,441.778 511.379,442.012 C512.563,442.765 514.135,442.412 514.887,441.228 C515.314,440.556 515.375,439.766 515.143,439.066 L533.595,430.929 C533.767,431.231 533.988,431.502 534.299,431.702 C535.327,432.355 536.691,432.05 537.344,431.021 C537.708,430.449 537.748,429.782 537.558,429.183 L564.823,417.16 C564.983,417.494 565.181,417.809 565.41,418.107 L523.41,452.897 C523.298,452.785 523.206,452.657 523.067,452.568 C522.036,451.913 520.675,452.219 520.023,453.249 C519.786,453.623 519.715,454.038 519.717,454.448 L470.567,459.536 C470.528,459.287 470.465,459.043 470.375,458.808 L510.533,441.101 Z M583.663,425.961 L523.772,453.342 C523.742,453.293 523.736,453.236 523.705,453.191 L565.679,418.422 C566.011,418.794 566.379,419.145 566.823,419.426 C569.187,420.928 572.236,420.397 574.001,418.325 L583.663,425.961 Z M649.664,396.246 C649.861,396.602 650.139,396.92 650.509,397.157 C650.597,397.213 650.691,397.25 650.783,397.294 L628.314,456.516 C626.916,456.073 625.373,456.483 624.386,457.596 L584.449,426.051 L649.664,396.246 Z M807.019,481.92 L725.242,471.896 C725.305,470.83 724.818,469.763 723.854,469.15 C722.44,468.252 720.566,468.671 719.667,470.085 C719.453,470.424 719.316,470.789 719.248,471.162 L694.231,468.095 C694.268,467.329 693.936,466.564 693.244,466.124 C692.215,465.469 690.853,465.775 690.199,466.806 C690.047,467.043 689.959,467.303 689.907,467.563 L630.912,460.333 C630.998,459.008 630.395,457.674 629.195,456.912 C629.036,456.81 628.868,456.738 628.7,456.663 L651.169,397.44 C652.209,397.741 653.359,397.355 653.986,396.41 L807.345,480.961 C807.195,481.272 807.077,481.591 807.019,481.92 Z M823.208,538.782 L807.218,563.922 C806.785,563.682 806.315,563.528 805.829,563.469 L810.686,486.328 C810.904,486.331 811.122,486.309 811.336,486.273 L823.208,538.782 Z M839.486,513.962 C840.145,514.275 840.933,514.294 841.598,513.877 C842.63,513.229 842.941,511.869 842.293,510.836 C842.161,510.626 841.983,510.467 841.802,510.318 L855.337,489.04 C856.265,489.534 857.418,489.543 858.372,488.944 C859.792,488.054 860.219,486.183 859.328,484.763 C859.243,484.628 859.141,484.508 859.039,484.392 L927.122,416.457 L1005.568,434.184 C1005.473,434.743 1005.506,435.32 1005.674,435.879 L941.803,458.918 C941.448,458.085 940.802,457.37 939.914,456.964 C938.022,456.104 935.796,456.941 934.937,458.828 C934.075,460.716 934.912,462.943 936.801,463.8 C937.917,464.31 939.147,464.214 940.148,463.669 L963.247,500.987 C962.92,501.235 962.644,501.553 962.462,501.953 C961.879,503.23 962.448,504.737 963.725,505.316 C964.448,505.646 965.239,505.598 965.898,505.271 L976.512,522.418 C976.241,522.629 976.001,522.887 975.848,523.222 C975.342,524.33 975.833,525.642 976.945,526.146 C977.049,526.195 977.159,526.19 977.268,526.221 L970.97,560.9 L838.004,586.304 C837.78,585.401 837.229,584.577 836.382,584.038 C835.564,583.519 834.627,583.369 833.745,583.517 L823.648,538.859 L839.486,513.962 Z M902.798,414.424 C903.958,415.074 905.421,415.102 906.625,414.345 C907.444,413.832 907.982,413.049 908.227,412.189 L926.643,416.349 L858.744,484.101 C858.688,484.051 858.632,483.998 858.574,483.953 L902.798,414.424 Z M953.594,385.002 C953.319,385.096 953.05,385.21 952.794,385.373 C951.038,386.474 950.506,388.793 951.61,390.551 C951.724,390.733 951.859,390.895 951.997,391.05 L926.989,416.003 L908.319,411.786 C908.466,410.909 908.318,409.979 907.808,409.167 C907.279,408.324 906.468,407.771 905.574,407.537 L928.117,296.366 C928.448,296.41 928.783,296.404 929.116,296.337 L953.594,385.002 Z M1109.535,311.244 C1109.575,311.315 1109.598,311.392 1109.643,311.462 C1109.877,311.834 1110.166,312.145 1110.477,312.426 L1068.017,363.627 C1067.047,362.934 1065.717,362.85 1064.644,363.524 C1063.224,364.415 1062.796,366.285 1063.688,367.705 C1063.824,367.921 1063.986,368.106 1064.163,368.274 L1011.487,431.793 C1010.281,430.899 1008.608,430.777 1007.26,431.623 C1006.986,431.795 1006.754,432.004 1006.542,432.229 L957.777,390.819 C958.583,389.755 958.772,388.323 958.225,387.065 L1109.535,311.244 Z M956.787,391.737 C957.062,391.565 957.294,391.357 957.506,391.132 L1006.272,432.543 C1005.988,432.917 1005.784,433.336 1005.657,433.781 L927.467,416.113 L952.294,391.338 C953.51,392.429 955.337,392.647 956.787,391.737 Z M994.475,551.438 C993.649,551.991 992.952,552.762 992.51,553.732 C992.045,554.751 991.924,555.837 992.084,556.867 L971.405,560.816 L977.671,526.312 C978.064,526.346 978.442,526.269 978.794,526.103 L994.475,551.438 Z M962.312,615.811 C962.259,615.783 962.215,615.745 962.159,615.721 C961.935,615.619 961.707,615.546 961.476,615.49 L971.325,561.252 L992.176,557.268 C992.495,558.653 993.338,559.89 994.593,560.688 L962.312,615.811 Z M990.336,631.262 C990.367,631.282 990.4,631.292 990.43,631.309 L962.544,682.451 C962.327,682.367 962.105,682.311 961.884,682.297 L960.875,622.869 C962.2,622.772 963.437,621.991 964.025,620.697 C964.09,620.554 964.127,620.409 964.172,620.263 L988.272,626.359 C987.889,628.211 988.646,630.187 990.336,631.262 Z M1126.31,610.604 C1126.341,610.786 1126.387,610.967 1126.453,611.146 C1126.546,611.392 1126.675,611.612 1126.819,611.819 L1074.955,653.464 C1073.706,652.045 1071.674,651.458 1069.799,652.161 C1068.544,652.63 1067.621,653.583 1067.137,654.726 L997.295,628.739 C997.487,628.143 997.554,627.53 997.503,626.925 L1126.31,610.604 Z M1158,404.681 C1158.662,404.737 1159.29,404.603 1159.854,404.346 L1230.439,539.901 C1229.433,540.499 1228.715,541.548 1228.607,542.802 C1228.569,543.254 1228.625,543.69 1228.737,544.104 L1202.402,552.821 C1201.653,550.917 1199.517,549.955 1197.593,550.674 C1195.65,551.404 1194.665,553.571 1195.392,555.512 C1195.51,555.829 1195.68,556.11 1195.869,556.373 L1131.525,608.04 C1131.086,607.557 1130.502,607.237 1129.868,607.114 L1158,404.681 Z M1195.346,430.887 C1195.12,431.228 1194.966,431.621 1194.929,432.057 C1194.807,433.458 1195.845,434.687 1197.243,434.808 C1198.036,434.876 1198.764,434.565 1199.277,434.037 L1215.012,446.649 C1214.825,446.939 1214.684,447.261 1214.652,447.629 C1214.549,448.843 1215.448,449.913 1216.662,450.017 C1217.337,450.074 1217.948,449.804 1218.393,449.359 L1241.643,467.994 C1241.049,468.792 1240.648,469.749 1240.556,470.813 C1240.315,473.601 1242.193,476.064 1244.847,476.675 L1232.85,539.416 C1232.791,539.408 1232.735,539.389 1232.674,539.383 C1232.009,539.325 1231.377,539.46 1230.81,539.718 L1160.226,404.164 C1160.553,403.968 1160.846,403.723 1161.101,403.438 L1195.346,430.887 Z M1202.832,375.831 C1203.77,375.337 1204.503,374.47 1204.758,373.356 C1204.841,372.992 1204.851,372.632 1204.828,372.276 L1354.811,354.194 C1354.821,354.248 1354.817,354.303 1354.831,354.359 C1355.124,355.677 1356.081,356.666 1357.271,357.079 L1317.168,497.267 C1316.703,497.21 1316.221,497.25 1315.752,497.425 C1314.183,498.014 1313.389,499.763 1313.977,501.331 C1314.566,502.9 1316.312,503.695 1317.881,503.107 C1318.295,502.952 1318.652,502.711 1318.947,502.418 L1356.151,532.542 C1355.614,533.329 1355.453,534.354 1355.813,535.314 C1355.869,535.467 1355.947,535.605 1356.024,535.743 L1332.464,551.725 L1251.365,544.59 L1246.674,476.803 C1249.264,476.529 1251.384,474.459 1251.615,471.768 C1251.878,468.714 1249.617,466.027 1246.563,465.763 C1245.645,465.683 1244.771,465.855 1243.975,466.186 L1202.832,375.831 Z M1235.9,339.976 C1236.208,340.245 1236.558,340.469 1236.985,340.566 C1238.355,340.881 1239.717,340.023 1240.03,338.655 C1240.207,337.881 1239.982,337.132 1239.532,336.551 L1254.22,322.697 C1254.482,322.923 1254.781,323.107 1255.141,323.19 C1256.329,323.462 1257.51,322.718 1257.783,321.529 C1257.934,320.868 1257.749,320.227 1257.371,319.724 L1279.048,299.281 C1279.756,299.979 1280.648,300.507 1281.689,300.746 C1284.418,301.37 1287.118,299.852 1288.088,297.31 L1348.564,317.882 C1348.548,317.941 1348.521,317.992 1348.506,318.052 C1348.358,318.702 1348.404,319.347 1348.579,319.943 L1204.553,371.07 C1204.406,370.718 1204.202,370.395 1203.957,370.103 L1235.9,339.976 Z M1354.78,277.966 L1352.219,315.135 C1350.679,315.113 1349.275,316.048 1348.695,317.489 L1288.22,296.917 C1288.255,296.801 1288.309,296.695 1288.336,296.575 C1288.52,295.772 1288.507,294.977 1288.351,294.221 L1354.78,277.966 Z M1355.203,277.864 L1412.176,263.922 C1412.316,264.38 1412.531,264.794 1412.814,265.152 L1354.837,316.258 C1354.352,315.763 1353.731,315.393 1353.005,315.228 C1352.879,315.197 1352.754,315.196 1352.63,315.181 L1355.203,277.864 Z M1360.872,195.607 C1361.089,195.605 1361.311,195.586 1361.533,195.537 C1361.909,195.453 1362.246,195.296 1362.548,195.095 L1413.292,260.018 C1412.324,260.867 1411.82,262.176 1412.071,263.521 L1355.231,277.43 L1360.872,195.607 Z M1191.295,6.322 C1191.548,6.036 1191.753,5.714 1191.911,5.366 L1232.828,21.242 C1232.714,21.634 1232.686,22.057 1232.781,22.485 C1233.087,23.855 1234.445,24.715 1235.816,24.411 C1236.592,24.237 1237.194,23.722 1237.525,23.064 L1256.31,30.352 C1256.219,30.685 1256.198,31.042 1256.279,31.403 C1256.543,32.59 1257.724,33.34 1258.914,33.073 C1259.027,33.048 1259.132,33.007 1259.237,32.966 L1300.022,113.907 C1299.794,114.039 1299.584,114.19 1299.392,114.362 L1191.295,6.322 Z M1288.144,42.703 C1287.817,43.642 1287.724,44.676 1287.957,45.717 C1288.566,48.451 1291.098,50.234 1293.811,50.016 L1301.245,113.462 C1301.187,113.472 1301.128,113.471 1301.069,113.483 C1300.829,113.536 1300.603,113.615 1300.385,113.71 L1259.605,32.779 C1259.94,32.569 1260.204,32.275 1260.381,31.932 L1288.144,42.703 Z M1363.102,87.451 C1362.845,87.957 1362.745,88.548 1362.878,89.146 C1362.902,89.248 1362.942,89.342 1362.975,89.439 L1305.211,115.426 C1304.534,114.12 1303.146,113.319 1301.657,113.414 L1294.221,49.968 C1294.342,49.949 1294.46,49.951 1294.581,49.924 C1296.035,49.6 1297.219,48.726 1297.983,47.576 L1363.102,87.451 Z M1360.797,189.548 C1360.604,189.553 1360.409,189.574 1360.212,189.617 C1359.82,189.706 1359.466,189.868 1359.154,190.083 L1343.647,170.243 C1344.218,169.728 1344.509,168.935 1344.33,168.131 C1344.064,166.941 1342.884,166.194 1341.694,166.46 C1341.417,166.522 1341.168,166.638 1340.945,166.787 L1304.348,119.963 C1305.348,119.086 1305.863,117.718 1305.554,116.33 C1305.513,116.146 1305.445,115.975 1305.379,115.803 L1363.144,89.815 C1363.537,90.525 1364.245,91.002 1365.045,91.102 L1360.797,189.548 Z M1384.85,311.407 L1355.767,317.876 C1355.632,317.401 1355.408,316.961 1355.105,316.577 L1413.085,265.463 C1413.239,265.62 1413.408,265.757 1413.586,265.884 L1384.85,311.407 Z M1413.912,305.367 C1414.155,306.057 1414.698,306.625 1415.465,306.801 C1416.652,307.071 1417.834,306.33 1418.106,305.141 C1418.162,304.9 1418.148,304.663 1418.125,304.429 L1442.743,298.954 C1443.049,299.958 1443.858,300.782 1444.955,301.033 C1446.589,301.407 1448.214,300.385 1448.588,298.75 C1448.624,298.595 1448.636,298.439 1448.646,298.285 L1544.824,298.389 L1549.506,305.803 L1524.037,334.462 C1523.038,333.67 1521.67,333.397 1520.391,333.876 C1518.445,334.601 1517.464,336.769 1518.192,338.711 C1518.426,339.335 1518.82,339.848 1519.296,340.25 L1427.271,462.271 C1426.299,461.619 1425.044,461.423 1423.864,461.867 C1423.714,461.923 1423.582,462.002 1423.442,462.075 L1405.939,432.715 C1406.917,432.032 1407.44,430.807 1407.165,429.57 C1406.798,427.934 1405.178,426.906 1403.543,427.271 C1403.294,427.326 1403.065,427.419 1402.847,427.529 L1360.591,356.649 C1361.836,355.811 1362.511,354.274 1362.165,352.723 C1361.954,351.778 1361.396,351.009 1360.667,350.49 L1385.105,311.775 L1413.912,305.367 Z M1529.063,279.752 C1529.424,281.032 1530.436,282.085 1531.825,282.403 C1532.768,282.618 1533.701,282.446 1534.483,282.01 L1544.563,297.975 L1448.644,297.871 C1448.64,297.796 1448.637,297.719 1448.626,297.644 L1529.063,279.752 Z M1556.086,298.401 L1549.791,305.482 L1545.313,298.388 L1556.086,298.401 Z M1630.992,214.732 C1631.053,214.779 1631.112,214.821 1631.175,214.862 L1585.788,294.868 C1585.527,294.738 1585.256,294.629 1584.959,294.562 C1582.937,294.099 1580.922,295.364 1580.459,297.387 C1580.41,297.599 1580.391,297.811 1580.38,298.022 L1557.002,297.991 L1630.992,214.732 Z M1748.208,352.977 C1748.186,353.057 1748.148,353.127 1748.13,353.208 C1748.033,353.636 1748.018,354.061 1748.038,354.48 L1681.811,360.661 C1681.615,359.484 1680.733,358.484 1679.498,358.202 C1677.865,357.829 1676.239,358.849 1675.865,360.483 C1675.809,360.732 1675.793,360.978 1675.799,361.221 L1593.637,368.888 C1593.415,367.404 1592.318,366.135 1590.768,365.78 C1590.452,365.708 1590.14,365.69 1589.831,365.699 L1584.631,301.936 C1585.953,301.753 1587.099,300.875 1587.602,299.598 L1748.208,352.977 Z M1583.282,301.887 C1583.598,301.959 1583.91,301.976 1584.219,301.968 L1589.419,365.73 C1588.953,365.795 1588.512,365.946 1588.109,366.171 L1550.021,305.846 L1556.639,298.401 L1580.387,298.428 C1580.477,300.059 1581.611,301.504 1583.282,301.887 Z M1428.745,464.24 C1428.727,464.181 1428.721,464.122 1428.7,464.065 C1428.613,463.835 1428.504,463.622 1428.38,463.42 L1502.878,411.819 C1503.134,412.122 1503.461,412.345 1503.828,412.475 L1497.007,441.459 C1496.032,441.267 1494.995,441.318 1493.994,441.693 C1491.372,442.678 1489.958,445.43 1490.548,448.087 L1428.745,464.24 Z M1437.526,493.985 L1395.794,496.085 L1422.738,468.211 C1423.744,469.08 1425.17,469.401 1426.501,468.903 C1426.647,468.848 1426.776,468.77 1426.912,468.699 L1439.641,490.053 C1438.331,490.915 1437.515,492.389 1437.526,493.985 Z M1520.651,340.986 L1510.598,383.706 C1510.193,383.649 1509.771,383.679 1509.36,383.833 C1508.045,384.324 1507.381,385.792 1507.874,387.104 C1508.153,387.847 1508.747,388.374 1509.444,388.609 L1504.829,408.223 C1504.487,408.18 1504.131,408.208 1503.784,408.337 C1502.645,408.765 1502.065,410.038 1502.494,411.18 C1502.534,411.287 1502.588,411.383 1502.643,411.48 L1428.134,463.088 C1427.973,462.881 1427.794,462.694 1427.596,462.527 L1519.62,340.506 C1519.938,340.719 1520.285,340.876 1520.651,340.986 Z M1359.315,357.206 C1359.646,357.132 1359.946,357.004 1360.233,356.855 L1402.489,427.734 C1401.498,428.415 1400.964,429.646 1401.242,430.891 C1401.606,432.527 1403.228,433.555 1404.863,433.19 C1405.121,433.132 1405.356,433.035 1405.58,432.92 L1423.084,462.28 C1421.677,463.228 1421.043,465.041 1421.665,466.701 C1421.842,467.172 1422.107,467.586 1422.43,467.934 L1395.189,496.116 L1319.819,499.909 C1319.791,499.672 1319.743,499.435 1319.655,499.202 C1319.295,498.241 1318.5,497.576 1317.578,497.334 L1357.667,357.191 C1358.195,357.313 1358.751,357.331 1359.315,357.206 Z M1204.683,371.462 L1348.71,320.336 C1349.162,321.415 1350.102,322.272 1351.33,322.552 C1353.351,323.014 1355.366,321.75 1355.828,319.727 C1355.94,319.235 1355.946,318.745 1355.869,318.277 L1384.538,311.9 L1360.318,350.271 C1359.542,349.838 1358.615,349.665 1357.679,349.873 C1355.848,350.284 1354.642,351.964 1354.762,353.783 L1204.795,371.864 C1204.771,371.726 1204.723,371.595 1204.683,371.462 Z M1381.129,510.663 C1380.547,510.217 1379.759,510.07 1379.021,510.347 C1377.878,510.774 1377.302,512.045 1377.729,513.187 C1377.816,513.419 1377.945,513.621 1378.093,513.803 L1360.579,531.924 C1359.769,531.253 1358.643,531.013 1357.588,531.409 C1357.118,531.585 1356.728,531.874 1356.413,532.222 L1319.22,502.106 C1319.608,501.595 1319.831,500.972 1319.842,500.322 L1394.77,496.551 L1381.129,510.663 Z M1384.44,555.447 C1384.275,555.696 1384.166,555.975 1384.112,556.269 L1341.266,552.5 L1356.688,536.543 C1357.499,537.238 1358.645,537.492 1359.716,537.09 C1360.16,536.924 1360.532,536.659 1360.838,536.337 L1384.44,555.447 Z M1356.256,536.085 C1356.299,536.144 1356.341,536.204 1356.389,536.257 L1340.735,552.453 L1333.117,551.782 L1356.256,536.085 Z M1299.12,595.505 C1298.114,594.637 1296.688,594.317 1295.354,594.817 C1294.45,595.156 1293.766,595.814 1293.354,596.609 L1277.552,589.475 L1332.575,552.15 L1340.365,552.835 L1299.12,595.505 Z M1256.989,602.925 C1256.625,602.483 1256.094,602.181 1255.479,602.128 C1255.433,602.124 1255.393,602.145 1255.347,602.144 L1253.758,579.186 L1276.709,589.548 L1256.989,602.925 Z M1232.028,546.868 C1232.531,546.911 1233.018,546.85 1233.47,546.708 L1243.757,574.215 L1202.402,555.544 C1202.683,554.817 1202.734,554.011 1202.52,553.218 L1228.868,544.497 C1229.375,545.78 1230.56,546.741 1232.028,546.868 Z M1254.669,602.221 L1244.491,575.002 L1253.331,578.992 L1254.936,602.19 C1254.848,602.206 1254.754,602.196 1254.669,602.221 Z M1202.232,555.921 L1243.96,574.763 L1254.297,602.402 C1254.118,602.494 1253.946,602.589 1253.8,602.724 L1201.842,556.523 C1201.991,556.334 1202.122,556.134 1202.232,555.921 Z M1251.394,545.008 L1331.923,552.092 L1277.11,589.275 L1253.726,578.718 L1251.394,545.008 Z M1253.298,578.523 L1244.288,574.456 L1233.852,546.55 C1235.006,546.042 1235.864,544.978 1236.054,543.659 L1250.977,544.971 L1253.298,578.523 Z M1245.61,476.817 C1245.832,476.838 1246.044,476.814 1246.261,476.808 L1250.947,544.554 L1236.092,543.247 C1236.148,541.464 1234.953,539.914 1233.256,539.492 L1245.252,476.75 C1245.373,476.769 1245.487,476.807 1245.61,476.817 Z M1130.355,612.924 C1131.927,612.334 1132.72,610.586 1132.129,609.019 C1132.04,608.78 1131.917,608.567 1131.779,608.366 L1196.122,556.701 C1197.126,557.814 1198.741,558.271 1200.229,557.713 C1200.753,557.517 1201.199,557.21 1201.57,556.836 L1253.54,603.046 C1253.308,603.362 1253.128,603.717 1253.091,604.137 C1253.074,604.338 1253.122,604.526 1253.157,604.718 L1075.878,655.075 C1075.857,655.018 1075.854,654.96 1075.832,654.905 C1075.678,654.493 1075.457,654.13 1075.207,653.792 L1127.072,612.146 C1127.884,613.019 1129.168,613.368 1130.355,612.924 Z M1264.642,630.065 C1263.688,630.508 1262.985,631.423 1262.89,632.546 C1262.746,634.215 1263.982,635.683 1265.652,635.826 C1265.812,635.84 1265.967,635.831 1266.121,635.819 L1279.341,731.084 L1217.94,783.027 C1217.329,782.379 1216.498,781.938 1215.543,781.854 C1213.719,781.697 1212.092,782.871 1211.61,784.568 L1098.545,759.072 C1098.69,758.268 1098.646,757.42 1098.338,756.598 C1097.43,754.174 1094.727,752.947 1092.306,753.852 C1091.206,754.266 1090.371,755.055 1089.85,756.012 L999.682,711.967 C1000.082,710.891 999.614,709.676 998.55,709.193 C997.442,708.688 996.134,709.176 995.629,710.287 C995.491,710.592 995.442,710.908 995.445,711.223 L965.248,714.398 C965.091,713.43 964.471,712.557 963.51,712.119 C963.145,711.955 962.764,711.871 962.386,711.854 L961.958,686.652 C962.722,686.584 963.434,686.152 963.774,685.404 C964.237,684.383 963.833,683.225 962.907,682.648 L990.798,631.496 C992.917,632.531 995.512,631.854 996.807,629.818 C996.947,629.596 997.052,629.361 997.154,629.127 L1067.003,655.117 C1066.688,656.089 1066.669,657.164 1067.056,658.196 C1067.963,660.619 1070.665,661.848 1073.088,660.938 C1075.325,660.102 1076.521,657.739 1075.982,655.474 L1253.253,605.12 C1253.55,605.876 1254.237,606.449 1255.101,606.524 C1255.347,606.545 1255.581,606.499 1255.808,606.444 L1264.642,630.065 Z M1295.615,712.893 C1294.399,713.428 1293.495,714.578 1293.371,715.998 C1293.289,716.959 1293.588,717.861 1294.129,718.576 L1279.715,730.77 L1266.532,635.76 C1266.606,635.744 1266.681,635.732 1266.753,635.711 L1295.615,712.893 Z M1374.603,804.217 C1374.368,804.455 1374.17,804.725 1374.024,805.033 L1288.502,771.166 C1288.594,770.891 1288.664,770.605 1288.689,770.303 C1288.869,768.234 1287.337,766.416 1285.271,766.236 C1285.052,766.217 1284.839,766.229 1284.629,766.246 L1279.782,731.254 L1294.396,718.891 C1295.006,719.535 1295.837,719.979 1296.792,720.061 C1297.786,720.146 1298.716,719.832 1299.442,719.258 L1374.603,804.217 Z M1253.449,940.068 C1253.369,940.059 1253.294,940.029 1253.212,940.023 C1252.772,939.986 1252.35,940.029 1251.938,940.109 L1236.645,875.377 C1237.783,875.02 1238.651,874.008 1238.759,872.746 C1238.902,871.078 1237.666,869.607 1235.997,869.465 C1235.744,869.441 1235.497,869.463 1235.257,869.5 L1216.284,789.193 C1217.722,788.768 1218.828,787.504 1218.964,785.92 C1218.992,785.592 1218.964,785.273 1218.91,784.963 L1281.343,770.998 C1281.707,772.283 1282.735,773.297 1284.068,773.619 L1253.449,940.068 Z M1170.163,895.83 C1170.485,895.184 1170.556,894.445 1170.385,893.748 L1232.93,873.607 C1233.342,874.635 1234.295,875.404 1235.476,875.506 C1235.738,875.529 1235.993,875.508 1236.24,875.463 L1251.535,940.197 C1250.44,940.508 1249.512,941.209 1248.897,942.152 L1170.163,895.83 Z M1080.177,932.008 C1080.047,931.75 1079.895,931.496 1079.7,931.266 C1078.364,929.678 1075.995,929.475 1074.407,930.809 C1074.243,930.947 1074.102,931.104 1073.968,931.264 L1045.787,909.951 L1047.38,890.877 C1048.269,890.902 1049.17,890.627 1049.903,890.01 C1050.666,889.369 1051.101,888.486 1051.209,887.568 L1164.429,894.498 C1164.432,894.832 1164.485,895.162 1164.599,895.484 L1080.177,932.008 Z M1174.824,1076.227 C1174.761,1076.275 1174.688,1076.311 1174.624,1076.363 C1174.288,1076.646 1174.02,1076.977 1173.784,1077.324 L1117.197,1042.365 C1117.75,1041.309 1117.648,1039.98 1116.832,1039.012 C1115.753,1037.727 1113.841,1037.563 1112.558,1038.643 C1112.363,1038.807 1112.203,1038.994 1112.06,1039.193 L1041.858,995.822 C1042.574,994.504 1042.463,992.83 1041.439,991.613 C1041.231,991.365 1040.992,991.164 1040.741,990.984 L1074.998,936.953 C1076.163,937.604 1077.607,937.592 1078.775,936.879 L1174.824,1076.227 Z M1045.747,910.441 L1073.722,931.596 C1072.811,932.953 1072.848,934.791 1073.951,936.102 C1074.16,936.348 1074.398,936.551 1074.65,936.729 L1040.393,990.762 C1039.982,990.531 1039.539,990.387 1039.081,990.324 L1045.747,910.441 Z M968.895,851.799 C968.937,851.734 968.982,851.672 969.018,851.607 L1044.003,885.775 C1043.519,887.014 1043.694,888.465 1044.61,889.555 C1045.232,890.295 1046.081,890.721 1046.971,890.842 L1045.398,909.656 L968.895,851.799 Z M1214.9,789.34 C1215.236,789.369 1215.562,789.338 1215.88,789.281 L1234.852,869.588 C1233.703,869.939 1232.823,870.953 1232.713,872.225 C1232.684,872.566 1232.725,872.896 1232.804,873.213 L1170.255,893.355 C1170.139,893.061 1169.987,892.775 1169.771,892.52 C1168.692,891.238 1166.78,891.074 1165.498,892.152 C1164.888,892.668 1164.539,893.371 1164.449,894.104 L1051.226,887.158 C1051.233,886.297 1050.961,885.428 1050.361,884.717 C1050.291,884.633 1050.206,884.568 1050.128,884.49 L1094.961,834.393 C1095.199,834.584 1095.455,834.756 1095.746,834.889 C1097.635,835.748 1099.863,834.912 1100.721,833.027 C1101.58,831.137 1100.747,828.91 1098.856,828.051 C1098.363,827.826 1097.846,827.723 1097.336,827.719 L1094.368,762.893 C1094.778,762.855 1095.189,762.785 1095.593,762.633 C1097.06,762.084 1098.076,760.875 1098.46,759.473 L1211.534,784.977 C1211.516,785.076 1211.487,785.172 1211.477,785.275 C1211.299,787.34 1212.831,789.162 1214.9,789.34 Z M1281.206,769.658 C1281.178,769.979 1281.205,770.289 1281.256,770.594 L1218.826,784.578 C1218.697,784.125 1218.486,783.709 1218.207,783.342 L1279.409,731.568 L1284.229,766.309 C1282.627,766.623 1281.353,767.949 1281.206,769.658 Z M940.779,838.285 C941.045,837.564 940.939,836.729 940.41,836.1 C940.115,835.748 939.736,835.514 939.328,835.398 L943.869,811.754 L960.326,805.535 C960.685,806.348 961.32,807.041 962.191,807.439 C964.081,808.299 966.309,807.463 967.168,805.576 C968.026,803.686 967.193,801.461 965.303,800.6 C964.843,800.391 964.364,800.287 963.888,800.27 L962.489,717.891 C963.553,717.807 964.543,717.178 965.017,716.137 C965.213,715.705 965.289,715.254 965.279,714.809 L995.515,711.631 C995.651,712.299 996.055,712.902 996.725,713.207 C997.748,713.676 998.913,713.266 999.489,712.334 L1089.659,756.371 C1089.189,757.449 1089.116,758.701 1089.56,759.891 C1090.267,761.773 1092.056,762.92 1093.957,762.916 L1096.924,827.748 C1095.639,827.879 1094.454,828.654 1093.879,829.916 C1093.214,831.381 1093.577,833.043 1094.652,834.119 L1049.834,884.201 C1048.461,883.104 1046.462,883.088 1045.066,884.26 C1044.681,884.586 1044.38,884.973 1044.161,885.393 L969.187,851.229 C969.569,850.232 969.427,849.068 968.69,848.193 C967.61,846.912 965.7,846.748 964.416,847.826 C964.109,848.084 963.871,848.393 963.692,848.727 L940.779,838.285 Z M847.741,1000.268 C847.688,1000.242 847.643,1000.205 847.588,1000.18 C847.188,999.998 846.774,999.898 846.359,999.834 L853.585,933.713 C854.775,933.758 855.933,933.094 856.458,931.939 C857.15,930.416 856.476,928.617 854.948,927.926 C854.717,927.82 854.48,927.754 854.241,927.711 L863.205,845.68 C864.701,845.76 866.166,844.941 866.825,843.494 C867.058,842.982 867.155,842.451 867.155,841.924 L936.546,837.852 C936.605,838.24 936.76,838.617 937.03,838.939 C937.162,839.096 937.313,839.221 937.475,839.33 L847.741,1000.268 Z M729.676,763.984 C729.98,763.391 730.103,762.73 730.067,762.074 L773.691,757.266 C773.772,757.668 773.942,758.055 774.224,758.389 C775.127,759.465 776.733,759.602 777.807,758.699 C778.415,758.186 778.71,757.451 778.7,756.717 L798.727,754.51 C798.803,754.848 798.945,755.172 799.185,755.455 C799.967,756.387 801.359,756.506 802.292,755.719 C802.811,755.283 803.068,754.66 803.068,754.031 L832.669,750.77 C832.815,751.754 833.207,752.715 833.895,753.531 C835.694,755.674 838.763,756.084 841.069,754.639 L876.954,807.488 C876.905,807.525 876.852,807.551 876.807,807.59 C875.218,808.926 875.013,811.295 876.348,812.883 C877.684,814.471 880.054,814.674 881.641,813.34 C882.027,813.016 882.328,812.627 882.548,812.207 L909.273,824.385 L866.828,840.424 C866.467,839.609 865.832,838.914 864.96,838.516 C863.251,837.74 861.275,838.357 860.275,839.881 L729.676,763.984 Z M919.066,820.684 L909.819,824.178 L882.708,811.822 C883.188,810.584 883.014,809.135 882.098,808.047 C880.892,806.613 878.85,806.32 877.295,807.256 L841.412,754.406 C841.51,754.334 841.618,754.283 841.712,754.201 C841.882,754.061 842.018,753.893 842.166,753.736 L919.066,820.684 Z M936.787,836.467 L910.35,824.42 L919.421,820.992 L936.934,836.236 C936.879,836.313 936.829,836.387 936.787,836.467 Z M866.975,840.811 L909.804,824.625 L936.623,836.848 C936.563,837.041 936.529,837.24 936.523,837.441 L867.125,841.512 C867.098,841.271 867.046,841.039 866.975,840.811 Z M943.416,811.924 L938.93,835.326 C938.361,835.271 937.773,835.436 937.299,835.832 C937.265,835.861 937.238,835.896 937.206,835.928 L919.86,820.826 L943.416,811.924 Z M961.86,717.873 C961.933,717.883 962.003,717.896 962.075,717.9 L963.476,800.289 C962.148,800.387 960.914,801.17 960.326,802.465 C959.926,803.346 959.907,804.293 960.178,805.148 L943.959,811.275 L961.86,717.873 Z M911.643,720.033 C911.508,719.035 910.887,718.121 909.898,717.672 C908.541,717.055 906.972,717.525 906.154,718.711 L777.473,626.306 L793.457,592.729 L830.682,587.896 C830.867,588.884 831.436,589.799 832.352,590.38 C834.102,591.493 836.424,590.974 837.537,589.223 C837.718,588.938 837.841,588.633 837.937,588.326 L917.935,608.565 C917.715,609.747 918.21,610.995 919.286,611.679 C920.699,612.579 922.574,612.159 923.472,610.745 C923.613,610.523 923.711,610.286 923.79,610.046 L956.926,618.43 C956.601,620.093 957.435,621.827 959.048,622.56 C959.507,622.767 959.987,622.873 960.461,622.89 L961.472,682.342 C960.747,682.441 960.081,682.859 959.756,683.576 C959.252,684.686 959.742,685.992 960.852,686.496 C961.077,686.6 961.312,686.633 961.544,686.658 L961.972,711.873 C960.926,711.973 959.96,712.6 959.494,713.625 C959.288,714.08 959.215,714.561 959.24,715.029 L911.643,720.033 Z M737.908,708.459 C737.555,708.314 737.182,708.23 736.801,708.199 L738.084,664.33 C738.493,664.303 738.899,664.189 739.271,663.957 C740.46,663.211 740.818,661.643 740.071,660.453 C739.649,659.779 738.962,659.383 738.232,659.293 L738.821,639.135 C739.167,639.108 739.507,639.028 739.82,638.831 C740.852,638.183 741.163,636.822 740.514,635.79 C740.154,635.215 739.571,634.891 738.948,634.806 L739.82,605.02 C740.814,605.013 741.82,604.756 742.724,604.189 C743.292,603.833 743.758,603.378 744.148,602.875 L776.956,626.434 L737.908,708.459 Z M803.391,564 C801.804,564.997 801.231,566.979 801.944,568.649 L744.634,596.866 C744.576,596.759 744.54,596.646 744.473,596.54 C744.036,595.843 743.465,595.29 742.82,594.866 L808.954,485.882 C809.377,486.106 809.819,486.248 810.272,486.301 L805.417,563.434 C804.724,563.427 804.021,563.604 803.391,564 Z M745.244,598.57 C745.167,598.114 745.013,597.67 744.818,597.235 L802.127,569.019 C802.157,569.072 802.174,569.128 802.206,569.179 C802.561,569.744 803.05,570.168 803.597,570.465 L793.179,592.349 L745.244,598.57 Z M745.275,598.982 L792.969,592.792 L777.132,626.06 L744.389,602.548 C745.088,601.495 745.39,600.237 745.275,598.982 Z M831.195,585.195 C830.745,585.905 830.571,586.707 830.631,587.487 L793.667,592.285 L803.965,570.652 C805.048,571.095 806.318,571.035 807.386,570.366 C809.143,569.263 809.672,566.943 808.569,565.187 C808.301,564.76 807.958,564.408 807.574,564.132 L823.335,539.351 L833.342,583.61 C832.486,583.854 831.708,584.385 831.195,585.195 Z M961.067,615.43 C959.479,615.232 957.88,616.052 957.185,617.586 C957.119,617.731 957.082,617.882 957.035,618.03 L923.898,609.647 C924.105,608.472 923.607,607.236 922.54,606.558 C921.124,605.658 919.252,606.077 918.353,607.49 C918.217,607.707 918.12,607.934 918.044,608.166 L838.045,587.926 C838.124,587.522 838.127,587.113 838.072,586.71 L970.89,561.335 L961.067,615.43 Z M629.688,462.858 C629.936,462.637 630.166,462.392 630.351,462.099 C630.622,461.673 630.792,461.213 630.875,460.746 L689.894,467.98 C689.893,468.71 690.213,469.429 690.878,469.85 C691.906,470.503 693.269,470.199 693.922,469.168 C694.054,468.96 694.122,468.734 694.178,468.506 L719.209,471.574 C719.164,472.624 719.649,473.668 720.6,474.273 C722.016,475.17 723.888,474.752 724.787,473.336 C724.993,473.012 725.121,472.664 725.192,472.308 L806.982,482.333 C806.898,483.618 807.468,484.899 808.597,485.673 L742.46,594.663 C740.75,593.711 738.6,593.674 736.824,594.788 C736.694,594.871 736.588,594.974 736.467,595.066 L629.688,462.858 Z M470.887,459.919 L519.727,454.864 C519.841,455.433 520.171,455.958 520.7,456.295 C521.729,456.948 523.091,456.643 523.746,455.613 C524.122,455.02 524.148,454.327 523.931,453.71 L584.022,426.246 L624.122,457.931 C624.086,457.979 624.043,458.019 624.012,458.07 C623.653,458.633 623.482,459.257 623.448,459.878 L470.887,459.919 Z M464.857,463.298 C466.611,464.412 468.931,463.892 470.042,462.14 C470.4,461.576 470.573,460.953 470.605,460.332 L623.44,460.292 C623.504,461.46 624.104,462.582 625.166,463.257 C626.501,464.103 628.164,463.998 629.374,463.127 L736.142,595.32 C734.115,597.083 733.603,600.092 735.074,602.438 C736.057,604.001 737.693,604.894 739.406,605.011 L738.534,634.791 C738.169,634.808 737.806,634.883 737.474,635.092 C736.441,635.74 736.13,637.102 736.778,638.135 C737.151,638.728 737.763,639.049 738.408,639.121 L737.818,659.273 C737.391,659.291 736.959,659.406 736.568,659.65 C735.377,660.398 735.019,661.965 735.766,663.154 C736.202,663.848 736.916,664.25 737.672,664.324 L736.39,708.186 C735.738,708.201 735.081,708.373 734.489,708.744 C732.731,709.848 732.202,712.166 733.305,713.924 C734.408,715.682 736.726,716.213 738.483,715.109 C740.241,714.006 740.771,711.688 739.668,709.932 C739.313,709.365 738.824,708.943 738.279,708.645 L777.297,626.68 L905.944,719.068 C905.927,719.105 905.9,719.139 905.882,719.178 C905.188,720.703 905.864,722.498 907.389,723.193 C908.916,723.887 910.713,723.215 911.405,721.689 C911.588,721.285 911.671,720.863 911.672,720.445 L959.279,715.441 C959.457,716.377 960.067,717.217 961,717.641 C961.15,717.709 961.302,717.752 961.454,717.795 L943.507,811.447 L919.506,820.518 L842.454,753.441 C844.093,751.414 844.126,748.453 842.389,746.385 C840.413,744.041 836.915,743.74 834.569,745.711 C833.155,746.9 832.498,748.646 832.621,750.357 L803.031,753.619 C802.961,753.26 802.813,752.91 802.562,752.611 C801.776,751.678 800.385,751.561 799.454,752.346 C798.915,752.797 798.657,753.449 798.676,754.098 L778.66,756.303 C778.585,755.883 778.41,755.471 778.114,755.117 C777.21,754.039 775.609,753.904 774.535,754.809 C773.909,755.334 773.61,756.098 773.64,756.857 L730.022,761.662 C729.916,761.02 729.655,760.395 729.205,759.857 C727.87,758.271 725.5,758.066 723.912,759.402 C722.323,760.738 722.12,763.107 723.455,764.695 C724.791,766.283 727.16,766.486 728.747,765.15 C729.033,764.912 729.258,764.631 729.454,764.332 L860.068,840.236 C860.043,840.287 860.008,840.328 859.984,840.381 C859.126,842.268 859.962,844.498 861.849,845.355 C862.157,845.496 862.474,845.576 862.794,845.629 L853.831,927.66 C852.63,927.605 851.461,928.268 850.933,929.43 C850.238,930.953 850.914,932.75 852.44,933.443 C852.68,933.553 852.926,933.617 853.174,933.66 L845.951,999.781 C844.063,999.66 842.211,1000.682 841.382,1002.504 C840.309,1004.863 841.352,1007.641 843.709,1008.713 C846.065,1009.783 848.844,1008.744 849.915,1006.387 C850.905,1004.213 850.078,1001.697 848.099,1000.477 L937.835,839.533 C938.58,839.859 939.477,839.766 940.141,839.207 C940.33,839.047 940.477,838.857 940.599,838.658 L963.533,849.107 C963.172,850.096 963.321,851.238 964.047,852.1 C965.126,853.383 967.038,853.545 968.321,852.467 C968.443,852.365 968.546,852.248 968.648,852.129 L1045.359,910.145 L1038.669,990.291 C1037.78,990.266 1036.881,990.537 1036.146,991.156 C1034.557,992.492 1034.354,994.861 1035.689,996.449 C1037.025,998.037 1039.395,998.242 1040.983,996.906 C1041.243,996.688 1041.45,996.436 1041.635,996.17 L1111.837,1039.541 C1111.271,1040.602 1111.366,1041.941 1112.188,1042.916 C1113.267,1044.199 1115.179,1044.363 1116.462,1043.283 C1116.665,1043.115 1116.828,1042.918 1116.973,1042.713 L1173.561,1077.672 C1172.641,1079.322 1172.767,1081.434 1174.056,1082.967 C1175.722,1084.947 1178.679,1085.201 1180.66,1083.535 C1182.64,1081.869 1182.896,1078.912 1181.229,1076.932 C1179.707,1075.121 1177.115,1074.773 1175.167,1075.994 L1079.118,936.645 C1079.157,936.613 1079.204,936.592 1079.243,936.559 C1080.489,935.512 1080.869,933.832 1080.337,932.389 L1164.758,895.863 C1164.859,896.059 1164.979,896.25 1165.128,896.428 C1166.207,897.711 1168.12,897.871 1169.403,896.795 C1169.619,896.613 1169.791,896.402 1169.941,896.18 L1248.668,942.5 C1248.382,943.039 1248.197,943.645 1248.141,944.291 C1247.918,946.871 1249.83,949.141 1252.409,949.363 C1254.985,949.586 1257.258,947.674 1257.48,945.096 C1257.684,942.74 1256.098,940.66 1253.856,940.145 L1284.475,773.695 C1284.524,773.703 1284.571,773.719 1284.624,773.723 C1286.244,773.863 1287.701,772.945 1288.346,771.549 L1373.868,805.416 C1373.801,805.627 1373.751,805.846 1373.731,806.074 C1373.587,807.746 1374.826,809.213 1376.495,809.357 C1378.165,809.502 1379.634,808.266 1379.777,806.596 C1379.921,804.926 1378.685,803.457 1377.015,803.314 C1376.228,803.246 1375.491,803.494 1374.91,803.939 L1299.745,718.979 C1300.358,718.373 1300.779,717.568 1300.859,716.643 C1301.039,714.574 1299.504,712.754 1297.437,712.576 C1296.935,712.533 1296.45,712.596 1295.998,712.736 L1267.139,635.565 C1268.115,635.13 1268.837,634.206 1268.935,633.066 C1269.079,631.396 1267.843,629.929 1266.173,629.784 C1265.773,629.75 1265.386,629.798 1265.024,629.909 L1256.196,606.3 C1256.893,605.979 1257.418,605.335 1257.49,604.517 C1257.528,604.065 1257.394,603.656 1257.191,603.287 L1277.15,589.748 L1293.184,596.986 C1292.864,597.816 1292.821,598.756 1293.158,599.652 C1293.886,601.597 1296.052,602.582 1297.993,601.854 C1299.937,601.125 1300.922,598.961 1300.193,597.017 C1300.015,596.544 1299.75,596.131 1299.428,595.783 L1340.896,552.881 L1384.076,556.681 C1384.077,556.933 1384.115,557.189 1384.208,557.439 C1384.634,558.583 1385.907,559.161 1387.048,558.734 C1388.19,558.304 1388.767,557.034 1388.337,555.892 C1387.912,554.751 1386.642,554.171 1385.499,554.6 C1385.186,554.716 1384.92,554.902 1384.701,555.126 L1361.11,536.025 C1361.682,535.229 1361.86,534.173 1361.491,533.185 C1361.35,532.81 1361.14,532.48 1360.884,532.203 L1378.384,514.098 C1378.974,514.59 1379.798,514.769 1380.569,514.48 C1381.71,514.051 1382.288,512.78 1381.859,511.639 C1381.76,511.373 1381.611,511.142 1381.434,510.943 L1395.375,496.521 L1437.565,494.397 C1437.583,494.59 1437.591,494.783 1437.634,494.979 C1438.199,497.504 1440.704,499.095 1443.231,498.532 C1445.756,497.967 1447.348,495.463 1446.785,492.936 C1446.22,490.41 1443.715,488.819 1441.189,489.383 C1440.759,489.48 1440.37,489.648 1440,489.847 L1427.271,468.496 C1428.524,467.656 1429.154,466.134 1428.851,464.639 L1490.652,448.486 C1490.688,448.604 1490.703,448.722 1490.746,448.839 C1491.822,451.706 1495.021,453.162 1497.89,452.086 C1500.759,451.012 1502.21,447.813 1501.136,444.943 C1500.488,443.212 1499.063,442.01 1497.41,441.553 L1504.228,412.576 C1504.589,412.633 1504.968,412.609 1505.334,412.472 C1506.478,412.042 1507.052,410.772 1506.625,409.63 C1506.379,408.973 1505.851,408.511 1505.232,408.312 L1509.845,388.709 C1510.269,388.779 1510.713,388.753 1511.145,388.591 C1512.461,388.1 1513.126,386.636 1512.634,385.321 C1512.347,384.555 1511.727,384.019 1511.002,383.794 L1521.055,341.08 C1521.695,341.194 1522.371,341.158 1523.026,340.914 C1524.969,340.185 1525.954,338.019 1525.227,336.077 C1525.031,335.551 1524.723,335.104 1524.35,334.734 L1549.734,306.168 L1587.76,366.393 C1587.035,366.909 1586.481,367.669 1586.268,368.605 C1585.805,370.626 1587.068,372.642 1589.092,373.105 C1591.115,373.567 1593.128,372.302 1593.59,370.28 C1593.666,369.951 1593.681,369.625 1593.668,369.301 L1675.83,361.634 C1676.018,362.821 1676.9,363.833 1678.145,364.117 C1679.779,364.491 1681.403,363.47 1681.777,361.836 C1681.836,361.579 1681.85,361.325 1681.843,361.073 L1748.069,354.893 C1748.328,356.766 1749.701,358.375 1751.653,358.822 C1754.177,359.399 1756.689,357.821 1757.268,355.298 C1757.844,352.775 1756.268,350.261 1753.744,349.683 C1751.439,349.157 1749.159,350.438 1748.34,352.586 L1587.734,299.207 C1587.747,299.157 1587.771,299.113 1587.783,299.062 C1588.146,297.477 1587.438,295.907 1586.146,295.075 L1631.533,215.07 C1631.731,215.164 1631.941,215.244 1632.168,215.296 C1633.801,215.67 1635.426,214.65 1635.8,213.016 C1636.173,211.381 1635.153,209.754 1633.52,209.38 C1631.886,209.006 1630.263,210.029 1629.889,211.662 C1629.649,212.709 1629.984,213.747 1630.683,214.459 L1556.451,297.991 L1545.051,297.975 L1534.832,281.789 C1535.557,281.273 1536.111,280.514 1536.325,279.58 C1536.787,277.554 1535.523,275.541 1533.5,275.078 C1531.479,274.615 1529.463,275.88 1529.001,277.902 C1528.889,278.394 1528.883,278.884 1528.96,279.352 L1448.535,297.242 C1448.239,296.215 1447.424,295.371 1446.309,295.116 C1444.675,294.743 1443.049,295.764 1442.676,297.398 C1442.586,297.79 1442.582,298.18 1442.64,298.553 L1418.038,304.026 C1417.815,303.291 1417.25,302.682 1416.449,302.498 C1415.261,302.226 1414.078,302.969 1413.806,304.157 C1413.742,304.433 1413.746,304.707 1413.785,304.97 L1385.416,311.281 L1413.935,266.103 C1414.711,266.535 1415.637,266.707 1416.573,266.499 C1418.6,266.047 1419.875,264.039 1419.422,262.015 C1418.97,259.988 1416.962,258.713 1414.936,259.165 C1414.443,259.275 1413.999,259.481 1413.608,259.752 L1362.872,194.84 C1363.671,194.131 1364.082,193.033 1363.833,191.917 C1363.545,190.618 1362.46,189.715 1361.209,189.576 L1365.459,91.125 C1365.609,91.118 1365.761,91.104 1365.914,91.07 C1367.286,90.765 1368.146,89.409 1367.842,88.038 C1367.535,86.667 1366.179,85.806 1364.807,86.11 C1364.18,86.25 1363.668,86.617 1363.317,87.098 L1298.19,47.218 C1298.839,46.066 1299.099,44.69 1298.789,43.3 C1298.122,40.31 1295.156,38.427 1292.165,39.096 C1290.36,39.497 1288.973,40.741 1288.291,42.316 L1260.537,31.548 C1260.641,31.198 1260.671,30.821 1260.584,30.438 C1260.32,29.247 1259.141,28.501 1257.954,28.771 C1257.269,28.921 1256.737,29.379 1256.453,29.964 L1237.68,22.681 C1237.807,22.27 1237.844,21.826 1237.744,21.375 C1237.437,20.005 1236.081,19.145 1234.709,19.449 C1233.911,19.626 1233.294,20.167 1232.971,20.854 L1192.059,4.981 C1192.262,4.362 1192.319,3.686 1192.167,3.004 C1191.716,0.981 1189.709,-0.294 1187.684,0.156 C1185.66,0.611 1184.382,2.617 1184.834,4.641 C1185.286,6.667 1187.295,7.941 1189.319,7.487 C1189.969,7.342 1190.532,7.023 1190.997,6.608 L1299.093,114.649 C1298.314,115.521 1297.945,116.738 1298.218,117.967 C1298.67,119.99 1300.678,121.266 1302.704,120.814 C1303.196,120.704 1303.642,120.5 1304.032,120.229 L1340.626,167.049 C1340.106,167.564 1339.849,168.324 1340.021,169.093 C1340.287,170.284 1341.465,171.031 1342.655,170.764 C1342.898,170.711 1343.115,170.611 1343.315,170.489 L1358.836,190.347 C1358.062,191.057 1357.667,192.14 1357.911,193.238 C1358.195,194.509 1359.24,195.404 1360.459,195.572 L1354.81,277.534 L1288.24,293.824 C1287.703,291.943 1286.208,290.395 1284.166,289.927 C1281.178,289.244 1278.203,291.111 1277.519,294.099 C1277.106,295.9 1277.633,297.687 1278.762,298.98 L1257.087,319.421 C1256.818,319.177 1256.508,318.974 1256.125,318.885 C1254.937,318.613 1253.753,319.355 1253.482,320.544 C1253.327,321.227 1253.531,321.887 1253.936,322.395 L1239.247,336.248 C1238.933,335.956 1238.569,335.714 1238.12,335.611 C1236.75,335.296 1235.388,336.15 1235.075,337.522 C1234.893,338.316 1235.137,339.085 1235.618,339.672 L1203.672,369.803 C1203.2,369.354 1202.616,369.012 1201.936,368.856 C1199.911,368.392 1197.899,369.658 1197.436,371.681 C1196.972,373.702 1198.237,375.718 1200.258,376.18 C1201.021,376.356 1201.785,376.283 1202.462,376.016 L1243.606,466.346 C1242.955,466.673 1242.375,467.121 1241.899,467.671 L1218.653,449.038 C1218.859,448.735 1219.018,448.401 1219.051,448.01 C1219.157,446.793 1218.255,445.727 1217.041,445.623 C1216.343,445.562 1215.719,445.856 1215.271,446.327 L1199.54,433.717 C1199.785,433.366 1199.953,432.953 1199.992,432.494 C1200.115,431.095 1199.079,429.865 1197.681,429.743 C1196.865,429.673 1196.115,430.002 1195.599,430.56 L1161.359,403.115 C1161.738,402.585 1161.996,401.957 1162.056,401.261 C1162.234,399.196 1160.702,397.375 1158.635,397.197 C1156.568,397.019 1154.747,398.55 1154.57,400.618 C1154.404,402.548 1155.735,404.244 1157.593,404.606 L1129.459,607.056 C1129.05,607.034 1128.632,607.089 1128.226,607.241 C1126.973,607.711 1126.228,608.922 1126.274,610.191 L997.451,626.513 C997.235,625.255 996.525,624.086 995.361,623.348 C993.177,621.962 990.28,622.609 988.893,624.793 C988.658,625.164 988.501,625.56 988.38,625.961 L964.282,619.865 C964.576,618.384 963.943,616.862 962.67,616.02 L994.949,560.896 C995.059,560.954 995.152,561.029 995.266,561.08 C998.053,562.346 1001.345,561.116 1002.613,558.326 C1003.882,555.536 1002.648,552.249 999.859,550.979 C998.176,550.214 996.321,550.371 994.826,551.216 L979.147,525.887 C979.442,525.671 979.705,525.406 979.867,525.051 C980.371,523.938 979.879,522.634 978.769,522.13 C978.131,521.838 977.444,521.906 976.866,522.201 L966.253,505.058 C966.603,504.809 966.899,504.475 967.09,504.054 C967.672,502.778 967.107,501.272 965.829,500.69 C965.085,500.351 964.267,500.41 963.596,500.765 L940.5,463.452 C941.034,463.079 941.486,462.577 941.777,461.94 C942.169,461.078 942.193,460.15 941.94,459.309 L1005.812,436.269 C1005.889,436.448 1005.968,436.629 1006.076,436.802 C1007.179,438.559 1009.497,439.091 1011.254,437.988 C1013.011,436.885 1013.541,434.566 1012.438,432.81 C1012.258,432.523 1012.036,432.281 1011.799,432.062 L1064.477,368.544 C1065.448,369.25 1066.788,369.341 1067.869,368.663 C1069.288,367.772 1069.716,365.902 1068.824,364.482 C1068.685,364.259 1068.513,364.069 1068.332,363.896 L1110.792,312.696 C1112.298,313.837 1114.407,314.005 1116.103,312.94 C1118.296,311.564 1118.958,308.671 1117.582,306.479 C1116.206,304.287 1113.313,303.625 1111.12,305 C1109.118,306.257 1108.413,308.775 1109.352,310.875 L958.042,386.696 C958.016,386.65 958,386.602 957.973,386.558 C957.108,385.179 955.498,384.57 953.995,384.896 L929.516,296.229 C929.725,296.157 929.929,296.064 930.125,295.941 C931.544,295.051 931.972,293.18 931.08,291.76 C930.189,290.341 928.319,289.912 926.9,290.802 C925.48,291.694 925.052,293.564 925.944,294.984 C926.363,295.653 927.004,296.093 927.709,296.288 L905.166,407.463 C904.315,407.338 903.419,407.487 902.631,407.981 C900.874,409.084 900.345,411.402 901.447,413.16 C901.715,413.587 902.058,413.938 902.443,414.215 L858.222,483.734 C857.289,483.217 856.116,483.197 855.147,483.805 C853.728,484.697 853.3,486.566 854.191,487.987 C854.404,488.327 854.677,488.606 854.981,488.828 L841.455,510.095 C840.779,509.734 839.947,509.702 839.251,510.139 C838.219,510.786 837.907,512.147 838.555,513.181 C838.705,513.419 838.903,513.612 839.117,513.771 L823.52,538.291 L811.74,486.181 C812.594,485.936 813.371,485.405 813.885,484.596 C814.998,482.844 814.479,480.521 812.728,479.41 C810.976,478.297 808.656,478.815 807.542,480.569 C807.537,480.575 807.536,480.583 807.53,480.592 L654.179,396.044 C654.692,394.911 654.315,393.551 653.233,392.863 C652.048,392.11 650.479,392.46 649.726,393.645 C649.288,394.336 649.233,395.155 649.49,395.87 L584.09,425.767 L574.258,418 C574.33,417.902 574.416,417.818 574.482,417.715 C576.125,415.129 575.359,411.698 572.773,410.056 C570.186,408.413 566.758,409.18 565.115,411.766 C564.123,413.327 564.022,415.188 564.653,416.784 L537.394,428.805 C537.221,428.481 536.995,428.186 536.665,427.976 C535.634,427.32 534.274,427.627 533.622,428.657 C533.245,429.247 533.217,429.937 533.428,430.552 L514.982,438.686 C514.783,438.305 514.494,437.967 514.104,437.719 C512.919,436.967 511.35,437.317 510.597,438.503 C510.158,439.192 510.104,440.01 510.361,440.725 L470.208,458.429 C469.914,457.849 469.478,457.33 468.888,456.956 C467.138,455.844 464.815,456.362 463.702,458.113 C462.59,459.865 463.116119,462.188 464.857,463.298 L464.857,463.298 Z" id="Fill-4" fill="#5F666A"/>
                        </g>
                    </g>
                </g>
            </g>
        </g>
    </g>
</svg>